<?xml version="1.0" encoding="UTF-8"?>
<!DOCTYPE svg PUBLIC "-//W3C//DTD SVG 1.1//EN" "http://www.w3.org/Graphics/SVG/1.1/DTD/svg11.dtd">
<svg xmlns="http://www.w3.org/2000/svg" version="1.1" width="124px" height="124px" style="shape-rendering:geometricPrecision; text-rendering:geometricPrecision; image-rendering:optimizeQuality; fill-rule:evenodd; clip-rule:evenodd" xmlns:xlink="http://www.w3.org/1999/xlink">
<g><path style="opacity:1" fill="#2d3030" d="M -0.5,-0.5 C 40.8333,-0.5 82.1667,-0.5 123.5,-0.5C 123.5,40.8333 123.5,82.1667 123.5,123.5C 82.1667,123.5 40.8333,123.5 -0.5,123.5C -0.5,82.1667 -0.5,40.8333 -0.5,-0.5 Z"/></g>
<g><path style="opacity:1" fill="#1e2022" d="M 1.5,1.5 C 41.5,1.5 81.5,1.5 121.5,1.5C 121.5,41.5 121.5,81.5 121.5,121.5C 81.5,121.5 41.5,121.5 1.5,121.5C 1.5,81.5 1.5,41.5 1.5,1.5 Z"/></g>
<g><path style="opacity:1" fill="#24415e" d="M 63.5,48.5 C 57.4816,47.1517 51.4816,45.8184 45.5,44.5C 42.2869,44.19 39.2869,44.5233 36.5,45.5C 34.8333,46.1667 33.1667,46.8333 31.5,47.5C 32.8936,45.2918 34.8936,43.7918 37.5,43C 40.9066,42.5182 44.24,42.5182 47.5,43C 49.4687,38.1002 51.6354,33.2669 54,28.5C 61.3487,23.473 66.5154,25.1397 69.5,33.5C 68.3273,38.8434 66.3273,43.8434 63.5,48.5 Z"/></g>
<g><path style="opacity:1" fill="#27507d" d="M 70.5,23.5 C 76.5548,22.9421 77.8881,25.1088 74.5,30C 69.5705,30.427 68.2372,28.2604 70.5,23.5 Z"/></g>
<g><path style="opacity:1" fill="#2c78be" d="M 89.5,28.5 C 88.202,37.5199 88.202,46.1866 89.5,54.5C 89.1667,54.5 88.8333,54.5 88.5,54.5C 84.7885,51.6854 80.7885,51.0187 76.5,52.5C 74.7162,52.8925 73.0495,53.5592 71.5,54.5C 70.6409,52.8941 70.4742,51.2275 71,49.5C 69.9887,48.6634 68.8221,48.33 67.5,48.5C 72.5761,45.7266 75.7428,41.3933 77,35.5C 78.6665,33.0043 80.4998,30.671 82.5,28.5C 84.9787,27.3773 87.312,27.3773 89.5,28.5 Z"/></g>
<g><path style="opacity:1" fill="#5384c7" d="M 89.5,28.5 C 94.0898,29.9213 97.2565,32.9213 99,37.5C 99.5639,42.1935 99.3973,46.8602 98.5,51.5C 96.9291,53.6351 95.5957,55.9684 94.5,58.5C 92.2512,57.9202 90.5846,56.5869 89.5,54.5C 88.202,46.1866 88.202,37.5199 89.5,28.5 Z"/></g>
<g><path style="opacity:1" fill="#374661" d="M 98.5,51.5 C 99.3973,46.8602 99.5639,42.1935 99,37.5C 97.2565,32.9213 94.0898,29.9213 89.5,28.5C 87.312,27.3773 84.9787,27.3773 82.5,28.5C 84.8579,25.7636 87.8579,24.9302 91.5,26C 101.921,32.3673 104.254,40.8673 98.5,51.5 Z"/></g>
<g><path style="opacity:1" fill="#1065d7" d="M 36.5,45.5 C 37.5,45.5 38.5,45.5 39.5,45.5C 40.3588,50.93 40.3588,56.2633 39.5,61.5C 41.9913,62.5407 41.9913,63.3741 39.5,64C 40.4657,66.8965 41.1324,69.5632 41.5,72C 40.9747,72.6924 40.3081,73.1924 39.5,73.5C 37.9246,72.5435 36.258,71.8769 34.5,71.5C 30.9209,71.0894 28.7542,69.0894 28,65.5C 26.5402,58.8448 27.7069,52.8448 31.5,47.5C 33.1667,46.8333 34.8333,46.1667 36.5,45.5 Z"/></g>
<g><path style="opacity:1" fill="#20538b" d="M 45.5,44.5 C 51.4816,45.8184 57.4816,47.1517 63.5,48.5C 64.8333,48.5 66.1667,48.5 67.5,48.5C 65.22,50.2227 62.5533,50.8893 59.5,50.5C 55.7143,49.1074 52.0477,47.4407 48.5,45.5C 47.209,45.7373 46.209,45.404 45.5,44.5 Z"/></g>
<g><path style="opacity:1" fill="#1b71d4" d="M 48.5,45.5 C 52.0477,47.4407 55.7143,49.1074 59.5,50.5C 61.0773,52.8023 60.4106,54.3023 57.5,55C 58.428,55.3879 59.0946,56.0546 59.5,57C 60.0812,59.1671 59.4145,61.1671 57.5,63C 60.033,64.916 60.033,66.916 57.5,69C 58.3363,70.2433 58.003,71.4099 56.5,72.5C 54.2612,73.7878 51.9279,74.7878 49.5,75.5C 47.5096,75.0069 47.5096,73.8402 49.5,72C 48.8333,70.3333 48.1667,68.6667 47.5,67C 49.8912,65.6914 49.8912,64.6914 47.5,64C 51.2721,63.3893 51.2721,62.3893 47.5,61C 47.0574,59.4815 47.7241,58.3148 49.5,57.5C 49.0233,56.5224 48.3567,55.6891 47.5,55C 48.5,54.6667 49.5,54.3333 50.5,54C 47.2374,53.1305 46.9041,51.7972 49.5,50C 48.8333,49.6667 48.1667,49.3333 47.5,49C 48.3366,47.9887 48.67,46.8221 48.5,45.5 Z"/></g>
<g><path style="opacity:1" fill="#2285ef" d="M 76.5,52.5 C 77.4287,63.1813 77.9287,73.848 78,84.5C 80.583,81.0026 82.9164,77.3359 85,73.5C 85.1684,77.6411 85.3351,81.9745 85.5,86.5C 84.209,86.2627 83.209,86.596 82.5,87.5C 80.5,87.5 78.5,87.5 76.5,87.5C 72.3005,87.8099 68.3005,87.1432 64.5,85.5C 59.5807,73.5788 61.9141,63.2455 71.5,54.5C 73.0495,53.5592 74.7162,52.8925 76.5,52.5 Z"/></g>
<g><path style="opacity:1" fill="#4a97ea" d="M 88.5,54.5 C 88.8333,54.5 89.1667,54.5 89.5,54.5C 90.5846,56.5869 92.2512,57.9202 94.5,58.5C 100.731,64.3569 102.564,71.3569 100,79.5C 98.1433,82.1998 95.6433,83.8665 92.5,84.5C 92.6022,78.6076 92.9356,72.7742 93.5,67C 91.7258,62.5854 89.8925,62.752 88,67.5C 87.1864,62.9796 87.353,58.6463 88.5,54.5 Z"/></g>
<g><path style="opacity:1" fill="#2d8fea" d="M 76.5,52.5 C 80.7885,51.0187 84.7885,51.6854 88.5,54.5C 87.353,58.6463 87.1864,62.9796 88,67.5C 89.8925,62.752 91.7258,62.5854 93.5,67C 92.9356,72.7742 92.6022,78.6076 92.5,84.5C 90.2986,85.5664 87.9653,86.233 85.5,86.5C 85.3351,81.9745 85.1684,77.6411 85,73.5C 82.9164,77.3359 80.583,81.0026 78,84.5C 77.9287,73.848 77.4287,63.1813 76.5,52.5 Z"/></g>
<g><path style="opacity:1" fill="#1e6fc8" d="M 67.5,48.5 C 68.8221,48.33 69.9887,48.6634 71,49.5C 70.4742,51.2275 70.6409,52.8941 71.5,54.5C 61.9141,63.2455 59.5807,73.5788 64.5,85.5C 63.3943,86.7298 62.3943,87.8964 61.5,89C 62.1667,89.3333 62.8333,89.6667 63.5,90C 61.2757,91.7814 58.9423,93.2814 56.5,94.5C 51.4787,98.0566 46.1453,99.0566 40.5,97.5C 43.8066,97.9368 46.8066,97.2702 49.5,95.5C 48.2891,92.2876 48.2891,89.121 49.5,86C 47.5663,84.2713 47.5663,82.2713 49.5,80C 48.5868,78.5861 48.5868,77.0861 49.5,75.5C 51.9279,74.7878 54.2612,73.7878 56.5,72.5C 58.003,71.4099 58.3363,70.2433 57.5,69C 60.033,66.916 60.033,64.916 57.5,63C 59.4145,61.1671 60.0812,59.1671 59.5,57C 59.0946,56.0546 58.428,55.3879 57.5,55C 60.4106,54.3023 61.0773,52.8023 59.5,50.5C 62.5533,50.8893 65.22,50.2227 67.5,48.5 Z"/></g>
<g><path style="opacity:1" fill="#1567ce" d="M 36.5,45.5 C 39.2869,44.5233 42.2869,44.19 45.5,44.5C 46.209,45.404 47.209,45.7373 48.5,45.5C 48.67,46.8221 48.3366,47.9887 47.5,49C 48.1667,49.3333 48.8333,49.6667 49.5,50C 46.9041,51.7972 47.2374,53.1305 50.5,54C 49.5,54.3333 48.5,54.6667 47.5,55C 48.3567,55.6891 49.0233,56.5224 49.5,57.5C 47.7241,58.3148 47.0574,59.4815 47.5,61C 51.2721,62.3893 51.2721,63.3893 47.5,64C 49.8912,64.6914 49.8912,65.6914 47.5,67C 48.1667,68.6667 48.8333,70.3333 49.5,72C 47.5096,73.8402 47.5096,75.0069 49.5,75.5C 48.5868,77.0861 48.5868,78.5861 49.5,80C 47.5663,82.2713 47.5663,84.2713 49.5,86C 48.2891,89.121 48.2891,92.2876 49.5,95.5C 46.8066,97.2702 43.8066,97.9368 40.5,97.5C 38.2475,97.0844 36.7475,95.751 36,93.5C 35.4402,88.3186 35.6069,83.152 36.5,78C 36.6616,75.498 35.9949,73.3313 34.5,71.5C 36.258,71.8769 37.9246,72.5435 39.5,73.5C 40.3081,73.1924 40.9747,72.6924 41.5,72C 41.1324,69.5632 40.4657,66.8965 39.5,64C 41.9913,63.3741 41.9913,62.5407 39.5,61.5C 40.3588,56.2633 40.3588,50.93 39.5,45.5C 38.5,45.5 37.5,45.5 36.5,45.5 Z"/></g>
<g><path style="opacity:1" fill="#2b68aa" d="M 26.5,75.5 C 32.5273,76.0043 34.0273,79.0043 31,84.5C 29.1159,86.5763 26.9492,86.9097 24.5,85.5C 22.8097,81.6309 23.4764,78.2975 26.5,75.5 Z"/></g>
<g><path style="opacity:1" fill="#22415e" d="M 76.5,87.5 C 78.5,87.5 80.5,87.5 82.5,87.5C 83.2267,94.8448 80.2267,97.5115 73.5,95.5C 74.5,92.8333 75.5,90.1667 76.5,87.5 Z"/></g>
<g><path style="opacity:1" fill="#236ab4" d="M 64.5,85.5 C 68.3005,87.1432 72.3005,87.8099 76.5,87.5C 75.5,90.1667 74.5,92.8333 73.5,95.5C 71.7797,98.3783 69.2797,100.378 66,101.5C 63.1792,100.013 61.0126,97.8459 59.5,95C 58.552,94.5172 57.552,94.3505 56.5,94.5C 58.9423,93.2814 61.2757,91.7814 63.5,90C 62.8333,89.6667 62.1667,89.3333 61.5,89C 62.3943,87.8964 63.3943,86.7298 64.5,85.5 Z"/></g>
<g><path style="opacity:1" fill="#2461a6" d="M 89.5,88.5 C 94.2875,89.7261 95.2875,92.2261 92.5,96C 87.9167,96.9337 86.4167,95.1004 88,90.5C 88.7172,89.9558 89.2172,89.2891 89.5,88.5 Z"/></g>
</svg>
