<?xml version="1.0" encoding="UTF-8"?>
<!DOCTYPE svg PUBLIC "-//W3C//DTD SVG 1.1//EN" "http://www.w3.org/Graphics/SVG/1.1/DTD/svg11.dtd">
<svg xmlns="http://www.w3.org/2000/svg" version="1.1" width="124px" height="124px" style="shape-rendering:geometricPrecision; text-rendering:geometricPrecision; image-rendering:optimizeQuality; fill-rule:evenodd; clip-rule:evenodd" xmlns:xlink="http://www.w3.org/1999/xlink">
<g><path style="opacity:0.971" fill="#2a2b2d" d="M 11.5,-0.5 C 44.8333,-0.5 78.1667,-0.5 111.5,-0.5C 117.167,1.83333 121.167,5.83333 123.5,11.5C 123.5,14.8333 123.5,18.1667 123.5,21.5C 122.833,21.5 122.167,21.5 121.5,21.5C 122.705,11.736 118.705,5.236 109.5,2C 77.1667,1.33333 44.8333,1.33333 12.5,2C 9.89361,2.79181 7.89361,4.29181 6.5,6.5C 5.5,6.5 4.5,6.5 3.5,6.5C 3.16667,6.5 2.83333,6.5 2.5,6.5C 4.9573,3.44159 7.9573,1.10826 11.5,-0.5 Z"/></g>
<g><path style="opacity:1" fill="#1a1b1d" d="M 121.5,21.5 C 114.468,21.1697 107.468,21.503 100.5,22.5C 108.138,23.4975 115.804,23.8308 123.5,23.5C 123.5,25.5 123.5,27.5 123.5,29.5C 115.833,29.5 108.167,29.5 100.5,29.5C 97.8333,29.5 95.1667,29.5 92.5,29.5C 97.1705,18.3465 93.8372,10.8465 82.5,7C 57.1689,6.50003 31.8355,6.33336 6.5,6.5C 7.89361,4.29181 9.89361,2.79181 12.5,2C 44.8333,1.33333 77.1667,1.33333 109.5,2C 118.705,5.236 122.705,11.736 121.5,21.5 Z"/></g>
<g><path style="opacity:1" fill="#a7b4f8" d="M 2.5,6.5 C 2.83333,6.5 3.16667,6.5 3.5,6.5C 28.3278,7.49771 53.3278,7.83104 78.5,7.5C 78.5,10.8333 78.5,14.1667 78.5,17.5C 76.901,17.2322 75.5676,17.5655 74.5,18.5C 73.4415,19.6002 72.6082,20.9336 72,22.5C 70.7453,21.7894 69.5786,20.956 68.5,20C 69.7376,20.0773 70.7376,19.9106 71.5,19.5C 69.8327,18.3336 68.166,18.3336 66.5,19.5C 65.4324,18.5655 64.099,18.2322 62.5,18.5C 61.8333,18.8333 61.1667,19.1667 60.5,19.5C 56.3414,17.4143 54.3414,18.7476 54.5,23.5C 54.5393,25.2239 54.206,25.5573 53.5,24.5C 54.5749,20.062 52.9083,18.062 48.5,18.5C 48.7373,17.209 48.404,16.209 47.5,15.5C 46.5206,18.6248 46.1872,21.9581 46.5,25.5C 47.552,25.3505 48.552,25.5172 49.5,26C 48.5562,28.7191 48.2229,31.5525 48.5,34.5C 44.9581,34.1872 41.6248,34.5206 38.5,35.5C 25.5,35.5 12.5,35.5 -0.5,35.5C -0.5,30.1667 -0.5,24.8333 -0.5,19.5C 0.998637,20.6782 1.99864,22.3449 2.5,24.5C 4.39483,20.8573 3.39483,18.8573 -0.5,18.5C -0.5,16.1667 -0.5,13.8333 -0.5,11.5C 0.736849,10.0351 1.73685,8.36841 2.5,6.5 Z"/></g>
<g><path style="opacity:1" fill="#a1aeef" d="M 3.5,6.5 C 4.5,6.5 5.5,6.5 6.5,6.5C 31.8355,6.33336 57.1689,6.50003 82.5,7C 93.8372,10.8465 97.1705,18.3465 92.5,29.5C 90.2426,31.9233 87.5759,33.7567 84.5,35C 69.1703,35.4999 53.837,35.6666 38.5,35.5C 41.6248,34.5206 44.9581,34.1872 48.5,34.5C 48.2229,31.5525 48.5562,28.7191 49.5,26C 48.552,25.5172 47.552,25.3505 46.5,25.5C 46.1872,21.9581 46.5206,18.6248 47.5,15.5C 47.3354,18.5184 47.502,21.5184 48,24.5C 49.8024,17.9824 51.6357,17.9824 53.5,24.5C 54.206,25.5573 54.5393,25.2239 54.5,23.5C 56.3733,25.7431 58.3733,25.9098 60.5,24C 58.2133,24.9575 56.5466,24.1242 55.5,21.5C 55.7093,20.914 56.0426,20.414 56.5,20C 58.1147,19.9378 59.4481,19.7711 60.5,19.5C 61.1667,19.1667 61.8333,18.8333 62.5,18.5C 62.3367,20.8568 62.5034,23.1902 63,25.5C 63.3333,23.8333 63.6667,22.1667 64,20.5C 64.6708,19.7476 65.5041,19.4142 66.5,19.5C 67.8333,21.1667 69.1667,22.8333 70.5,24.5C 72.4839,23.381 74.3172,23.7144 76,25.5C 79.3124,23.8788 79.3124,23.5455 76,24.5C 75.5,24 75,23.5 74.5,23C 75.7932,22.51 77.1266,22.3433 78.5,22.5C 78.8333,19.5 77.5,18.1667 74.5,18.5C 75.5676,17.5655 76.901,17.2322 78.5,17.5C 78.5,14.1667 78.5,10.8333 78.5,7.5C 53.3278,7.83104 28.3278,7.49771 3.5,6.5 Z"/></g>
<g><path style="opacity:1" fill="#464b61" d="M 31.5,15.5 C 32.2389,15.369 32.9056,15.5357 33.5,16C 33.243,18.9769 32.5763,22.1436 31.5,25.5C 29.6457,21.9265 29.6457,18.5932 31.5,15.5 Z"/></g>
<g><path style="opacity:1" fill="#494e65" d="M -0.5,19.5 C -0.5,19.1667 -0.5,18.8333 -0.5,18.5C 3.39483,18.8573 4.39483,20.8573 2.5,24.5C 1.99864,22.3449 0.998637,20.6782 -0.5,19.5 Z"/></g>
<g><path style="opacity:1" fill="#484e65" d="M 43.5,24.5 C 42.1667,23.5 40.8333,22.5 39.5,21.5C 39.9175,20.7784 40.5842,20.2784 41.5,20C 37.8138,18.8007 38.1471,18.4674 42.5,19C 43.4061,20.6995 43.7394,22.5328 43.5,24.5 Z"/></g>
<g><path style="opacity:1" fill="#323541" d="M 47.5,15.5 C 48.404,16.209 48.7373,17.209 48.5,18.5C 52.9083,18.062 54.5749,20.062 53.5,24.5C 51.6357,17.9824 49.8024,17.9824 48,24.5C 47.502,21.5184 47.3354,18.5184 47.5,15.5 Z"/></g>
<g><path style="opacity:1" fill="#383b4b" d="M 62.5,18.5 C 64.099,18.2322 65.4324,18.5655 66.5,19.5C 65.5041,19.4142 64.6708,19.7476 64,20.5C 63.6667,22.1667 63.3333,23.8333 63,25.5C 62.5034,23.1902 62.3367,20.8568 62.5,18.5 Z"/></g>
<g><path style="opacity:1" fill="#4c526b" d="M 74.5,18.5 C 77.5,18.1667 78.8333,19.5 78.5,22.5C 77.1266,22.3433 75.7932,22.51 74.5,23C 75,23.5 75.5,24 76,24.5C 79.3124,23.5455 79.3124,23.8788 76,25.5C 74.3172,23.7144 72.4839,23.381 70.5,24.5C 69.1667,22.8333 67.8333,21.1667 66.5,19.5C 68.166,18.3336 69.8327,18.3336 71.5,19.5C 70.7376,19.9106 69.7376,20.0773 68.5,20C 69.5786,20.956 70.7453,21.7894 72,22.5C 72.6082,20.9336 73.4415,19.6002 74.5,18.5 Z"/></g>
<g><path style="opacity:1" fill="#4d516b" d="M 121.5,21.5 C 122.167,21.5 122.833,21.5 123.5,21.5C 123.5,22.1667 123.5,22.8333 123.5,23.5C 115.804,23.8308 108.138,23.4975 100.5,22.5C 107.468,21.503 114.468,21.1697 121.5,21.5 Z"/></g>
<g><path style="opacity:1" fill="#45495f" d="M 27.5,19.5 C 29.6005,23.8307 28.2672,25.6641 23.5,25C 22.4238,23.2739 22.2571,21.4406 23,19.5C 24.6155,18.1991 26.1155,18.1991 27.5,19.5 Z"/></g>
<g><path style="opacity:1" fill="#a0aced" d="M 27.5,19.5 C 27.6567,20.8734 27.49,22.2068 27,23.5C 24.1712,24.6745 23.1712,23.6745 24,20.5C 25.0113,19.6634 26.1779,19.33 27.5,19.5 Z"/></g>
<g><path style="opacity:1" fill="#6b749c" d="M 39.5,21.5 C 40.8333,22.5 42.1667,23.5 43.5,24.5C 42.0536,25.6129 40.3869,25.7796 38.5,25C 37.015,23.2435 37.3484,22.0768 39.5,21.5 Z"/></g>
<g><path style="opacity:1" fill="#474c64" d="M 60.5,19.5 C 59.4481,19.7711 58.1147,19.9378 56.5,20C 56.0426,20.414 55.7093,20.914 55.5,21.5C 56.5466,24.1242 58.2133,24.9575 60.5,24C 58.3733,25.9098 56.3733,25.7431 54.5,23.5C 54.3414,18.7476 56.3414,17.4143 60.5,19.5 Z"/></g>
<g><path style="opacity:1" fill="#474c64" d="M 70.5,24.5 C 69.1512,25.7965 67.8179,25.6298 66.5,24C 67.8193,23.805 69.1526,23.9717 70.5,24.5 Z"/></g>
<g><path style="opacity:1" fill="#4b5069" d="M 5.5,23.5 C 3.72452,20.343 4.72452,18.6763 8.5,18.5C 9.99449,18.7092 11.1612,19.3759 12,20.5C 15.5105,17.4144 17.6771,18.081 18.5,22.5C 16.8008,22.3398 15.1341,22.5065 13.5,23C 14.0253,23.6924 14.6919,24.1924 15.5,24.5C 19.445,23.5728 19.445,23.9061 15.5,25.5C 13.9707,25.4712 12.804,24.8045 12,23.5C 11.2849,27.9393 9.11825,29.106 5.5,27C 6.93801,26.7811 8.27135,26.2811 9.5,25.5C 7.90454,26.0437 6.57121,25.3771 5.5,23.5 Z"/></g>
<g><path style="opacity:1" fill="#a1adef" d="M 5.5,23.5 C 5.16667,20.5 6.5,19.1667 9.5,19.5C 9.5,20.8333 9.5,22.1667 9.5,23.5C 8.16667,23.5 6.83333,23.5 5.5,23.5 Z"/></g>
<g><path style="opacity:1" fill="#5a6982" d="M 92.5,29.5 C 95.1667,29.5 97.8333,29.5 100.5,29.5C 100.5,30.1667 100.167,30.5 99.5,30.5C 95.4656,33.6476 91.1323,36.4809 86.5,39C 68.3352,39.5686 50.1685,40.0686 32,40.5C 24.7991,40.503 17.9658,41.1697 11.5,42.5C 11.5,43.8333 11.5,45.1667 11.5,46.5C 11.5,53.1667 11.5,59.8333 11.5,66.5C 11.5,72.8333 11.5,79.1667 11.5,85.5C 10.5151,81.3656 10.1818,77.0323 10.5,72.5C 10.5,66.1667 10.5,59.8333 10.5,53.5C 10.5,50.5 10.5,47.5 10.5,44.5C 10.2317,41.8806 10.565,39.3806 11.5,37C 8.18323,36.5017 4.8499,36.335 1.5,36.5C 0.833333,36.5 0.166667,36.5 -0.5,36.5C -0.5,36.1667 -0.5,35.8333 -0.5,35.5C 12.5,35.5 25.5,35.5 38.5,35.5C 53.837,35.6666 69.1703,35.4999 84.5,35C 87.5759,33.7567 90.2426,31.9233 92.5,29.5 Z"/></g>
<g><path style="opacity:1" fill="#aec4e7" d="M 123.5,30.5 C 123.5,35.5 123.5,40.5 123.5,45.5C 121.952,45.8212 121.285,46.8212 121.5,48.5C 115.368,47.1435 109.201,46.1435 103,45.5C 85.9639,47.7636 68.7973,49.0969 51.5,49.5C 50.8333,49.5 50.1667,49.5 49.5,49.5C 50.9516,48.6981 52.6183,48.1981 54.5,48C 49.8452,47.5008 45.1785,47.3342 40.5,47.5C 41.2625,46.7321 42.2625,46.2321 43.5,46C 60.2196,45.9414 76.8862,45.2747 93.5,44C 96.4233,41.9545 99.2567,39.7879 102,37.5C 102.497,35.1902 102.663,32.8568 102.5,30.5C 109.5,30.5 116.5,30.5 123.5,30.5 Z"/></g>
<g><path style="opacity:1" fill="#72829b" d="M 99.5,30.5 C 97.3509,36.6073 93.0176,40.4406 86.5,42C 61.5022,42.5 36.5022,42.6666 11.5,42.5C 17.9658,41.1697 24.7991,40.503 32,40.5C 50.1685,40.0686 68.3352,39.5686 86.5,39C 91.1323,36.4809 95.4656,33.6476 99.5,30.5 Z"/></g>
<g><path style="opacity:1" fill="#90a3c3" d="M 100.5,29.5 C 108.167,29.5 115.833,29.5 123.5,29.5C 123.5,29.8333 123.5,30.1667 123.5,30.5C 116.5,30.5 109.5,30.5 102.5,30.5C 102.663,32.8568 102.497,35.1902 102,37.5C 99.2567,39.7879 96.4233,41.9545 93.5,44C 76.8862,45.2747 60.2196,45.9414 43.5,46C 42.2625,46.2321 41.2625,46.7321 40.5,47.5C 30.8468,46.8516 21.1802,46.5183 11.5,46.5C 11.5,45.1667 11.5,43.8333 11.5,42.5C 36.5022,42.6666 61.5022,42.5 86.5,42C 93.0176,40.4406 97.3509,36.6073 99.5,30.5C 100.167,30.5 100.5,30.1667 100.5,29.5 Z"/></g>
<g><path style="opacity:1" fill="#172130" d="M 1.5,36.5 C 4.8499,36.335 8.18323,36.5017 11.5,37C 10.565,39.3806 10.2317,41.8806 10.5,44.5C 8.17727,47.1349 6.34393,50.1349 5,53.5C 3.86184,60.9833 2.69517,68.3166 1.5,75.5C 1.5,62.5 1.5,49.5 1.5,36.5 Z"/></g>
<g><path style="opacity:1" fill="#9ec1eb" d="M 11.5,46.5 C 21.1802,46.5183 30.8468,46.8516 40.5,47.5C 45.1785,47.3342 49.8452,47.5008 54.5,48C 52.6183,48.1981 50.9516,48.6981 49.5,49.5C 44.8215,49.3342 40.1548,49.5008 35.5,50C 36.5,50.3333 37.5,50.6667 38.5,51C 36.0056,52.0317 33.6723,53.1983 31.5,54.5C 28.8872,55.3919 28.2205,57.0586 29.5,59.5C 27.7658,61.234 26.4324,63.234 25.5,65.5C 23.5756,65.567 21.5756,65.9003 19.5,66.5C 21.0777,67.2978 22.7444,67.7978 24.5,68C 22.3863,69.518 20.053,69.8513 17.5,69C 16.3838,64.919 14.3838,64.0857 11.5,66.5C 11.5,59.8333 11.5,53.1667 11.5,46.5 Z"/></g>
<g><path style="opacity:1" fill="#a4c3ef" d="M 31.5,54.5 C 32.2299,55.7124 33.2299,56.7124 34.5,57.5C 30.5664,60.2886 30.5664,63.1219 34.5,66C 31.5362,69.4681 31.2028,73.1348 33.5,77C 33.4988,78.3988 33.1654,79.8988 32.5,81.5C 33.6651,82.5836 34.9984,83.4169 36.5,84C 35.8333,84.3333 35.1667,84.6667 34.5,85C 37.3029,85.615 39.6363,86.7817 41.5,88.5C 40.1667,88.5 38.8333,88.5 37.5,88.5C 35.8333,88.5 34.1667,88.5 32.5,88.5C 32.719,89.675 32.3857,90.675 31.5,91.5C 26.1362,89.8323 20.8028,88.1657 15.5,86.5C 14.1667,86.5 12.8333,86.5 11.5,86.5C 11.5,86.1667 11.5,85.8333 11.5,85.5C 11.5,79.1667 11.5,72.8333 11.5,66.5C 14.3838,64.0857 16.3838,64.919 17.5,69C 20.053,69.8513 22.3863,69.518 24.5,68C 22.7444,67.7978 21.0777,67.2978 19.5,66.5C 21.5756,65.9003 23.5756,65.567 25.5,65.5C 26.4324,63.234 27.7658,61.234 29.5,59.5C 28.2205,57.0586 28.8872,55.3919 31.5,54.5 Z"/></g>
<g><path style="opacity:1" fill="#caddee" d="M 123.5,59.5 C 123.5,68.5 123.5,77.5 123.5,86.5C 122.833,86.1667 122.167,85.8333 121.5,85.5C 119.102,83.0257 116.102,81.6924 112.5,81.5C 112.167,81.5 111.833,81.5 111.5,81.5C 109.167,80.1667 106.833,80.1667 104.5,81.5C 103.5,81.5 102.5,81.5 101.5,81.5C 102.429,80.6851 103.429,79.8518 104.5,79C 103.451,78.5078 102.451,78.6744 101.5,79.5C 100.692,79.1924 100.025,78.6924 99.5,78C 101.147,76.2669 102.647,74.4336 104,72.5C 106.69,73.4589 107.024,72.7922 105,70.5C 104.667,70.8333 104.333,71.1667 104,71.5C 102.509,69.9963 100.676,69.1629 98.5,69C 97.6667,67.5 96.5,66.3333 95,65.5C 94.5439,64.2559 95.0439,63.4226 96.5,63C 95.386,61.4301 94.0526,60.0968 92.5,59C 93.1667,58.6667 93.8333,58.3333 94.5,58C 93.6634,56.9887 93.33,55.8221 93.5,54.5C 91.8008,54.6602 90.1341,54.4935 88.5,54C 90.3289,53.7265 91.8289,52.8932 93,51.5C 102.255,52.4907 111.421,54.6573 120.5,58C 120.167,58.3333 119.833,58.6667 119.5,59C 120.793,59.49 122.127,59.6567 123.5,59.5 Z"/></g>
<g><path style="opacity:1" fill="#bdd7f2" d="M 86.5,50.5 C 78.658,52.1641 78.658,53.6641 86.5,55C 83.8232,55.2494 81.4899,56.2494 79.5,58C 82.617,59.3362 84.617,61.6696 85.5,65C 84.6433,65.6891 83.9767,66.5224 83.5,67.5C 83.8457,68.6956 84.3457,68.6956 85,67.5C 85.4828,68.448 85.6495,69.448 85.5,70.5C 84.5,70.5 83.5,70.5 82.5,70.5C 82.5792,71.9305 82.2458,73.2638 81.5,74.5C 83.923,75.7289 86.423,76.7289 89,77.5C 89.3333,77.1667 89.6667,76.8333 90,76.5C 91.7337,77.2489 93.567,77.7489 95.5,78C 94.306,80.6578 95.306,81.8244 98.5,81.5C 93.402,82.9573 88.0687,83.624 82.5,83.5C 80.4687,81.4776 78.1354,79.8109 75.5,78.5C 74.994,75.89 72.994,74.0567 69.5,73C 70.2529,71.513 71.0862,71.3463 72,72.5C 72.3095,71.2341 72.8095,70.0674 73.5,69C 72.1279,67.7581 71.1279,66.2581 70.5,64.5C 68.604,63.5344 66.604,63.2011 64.5,63.5C 65.7353,61.2271 65.4019,59.3938 63.5,58C 64.448,57.5172 65.448,57.3505 66.5,57.5C 66.687,55.4357 67.187,53.4357 68,51.5C 68.3333,51.8333 68.6667,52.1667 69,52.5C 73.3246,51.5009 77.658,50.5009 82,49.5C 83.7067,49.5085 85.2067,49.8418 86.5,50.5 Z"/></g>
<g><path style="opacity:1" fill="#b6d0ee" d="M 123.5,45.5 C 123.5,46.8333 123.5,48.1667 123.5,49.5C 111.136,49.2484 98.803,49.5818 86.5,50.5C 85.2067,49.8418 83.7067,49.5085 82,49.5C 77.658,50.5009 73.3246,51.5009 69,52.5C 68.6667,52.1667 68.3333,51.8333 68,51.5C 67.187,53.4357 66.687,55.4357 66.5,57.5C 65.448,57.3505 64.448,57.5172 63.5,58C 65.4019,59.3938 65.7353,61.2271 64.5,63.5C 66.604,63.2011 68.604,63.5344 70.5,64.5C 71.1279,66.2581 72.1279,67.7581 73.5,69C 72.8095,70.0674 72.3095,71.2341 72,72.5C 71.0862,71.3463 70.2529,71.513 69.5,73C 72.994,74.0567 74.994,75.89 75.5,78.5C 74.8333,78.5 74.1667,78.5 73.5,78.5C 68.3826,72.718 62.3826,68.0513 55.5,64.5C 54.2921,63.7659 52.9587,63.4326 51.5,63.5C 50.8927,59.102 49.8927,58.7687 48.5,62.5C 47.4777,62.1445 46.811,61.4778 46.5,60.5C 46.0472,59.5416 45.3805,58.7083 44.5,58C 45.3366,56.9887 45.67,55.8221 45.5,54.5C 47.924,54.8076 50.2573,54.4742 52.5,53.5C 50.3759,52.8506 48.3759,52.0173 46.5,51C 48.3817,50.8019 50.0484,50.3019 51.5,49.5C 68.7973,49.0969 85.9639,47.7636 103,45.5C 109.201,46.1435 115.368,47.1435 121.5,48.5C 121.285,46.8212 121.952,45.8212 123.5,45.5 Z"/></g>
<g><path style="opacity:1" fill="#4f3642" d="M 51.5,63.5 C 51.5,63.8333 51.5,64.1667 51.5,64.5C 50.0695,64.4208 48.7362,64.7542 47.5,65.5C 46.8243,64.3984 46.1577,63.3984 45.5,62.5C 45.3284,61.5084 45.6618,60.8417 46.5,60.5C 46.811,61.4778 47.4777,62.1445 48.5,62.5C 49.8927,58.7687 50.8927,59.102 51.5,63.5 Z"/></g>
<g><path style="opacity:1" fill="#b47e7b" d="M 55.5,64.5 C 62.3826,68.0513 68.3826,72.718 73.5,78.5C 71.2166,78.3921 69.2166,77.5588 67.5,76C 63.5424,71.9044 59.5424,68.071 55.5,64.5 Z"/></g>
<g><path style="opacity:1" fill="#2e3543" d="M -0.5,36.5 C 0.166667,36.5 0.833333,36.5 1.5,36.5C 1.5,49.5 1.5,62.5 1.5,75.5C 1.5,83.1667 1.5,90.8333 1.5,98.5C 1.57298,100.027 0.906316,101.027 -0.5,101.5C -0.5,79.8333 -0.5,58.1667 -0.5,36.5 Z"/></g>
<g><path style="opacity:1" fill="#22385d" d="M 10.5,53.5 C 10.5,59.8333 10.5,66.1667 10.5,72.5C 8.83356,79.164 7.16689,85.8307 5.5,92.5C 5.5,89.5 5.5,86.5 5.5,83.5C 4.81134,72.9646 6.47801,62.9646 10.5,53.5 Z"/></g>
<g><path style="opacity:1" fill="#c3dbf1" d="M 123.5,49.5 C 123.5,52.8333 123.5,56.1667 123.5,59.5C 122.127,59.6567 120.793,59.49 119.5,59C 119.833,58.6667 120.167,58.3333 120.5,58C 111.421,54.6573 102.255,52.4907 93,51.5C 91.8289,52.8932 90.3289,53.7265 88.5,54C 90.1341,54.4935 91.8008,54.6602 93.5,54.5C 93.33,55.8221 93.6634,56.9887 94.5,58C 93.8333,58.3333 93.1667,58.6667 92.5,59C 94.0526,60.0968 95.386,61.4301 96.5,63C 95.0439,63.4226 94.5439,64.2559 95,65.5C 96.5,66.3333 97.6667,67.5 98.5,69C 100.676,69.1629 102.509,69.9963 104,71.5C 104.333,71.1667 104.667,70.8333 105,70.5C 107.024,72.7922 106.69,73.4589 104,72.5C 102.647,74.4336 101.147,76.2669 99.5,78C 100.025,78.6924 100.692,79.1924 101.5,79.5C 102.451,78.6744 103.451,78.5078 104.5,79C 103.429,79.8518 102.429,80.6851 101.5,81.5C 100.5,81.5 99.5,81.5 98.5,81.5C 95.306,81.8244 94.306,80.6578 95.5,78C 93.567,77.7489 91.7337,77.2489 90,76.5C 89.6667,76.8333 89.3333,77.1667 89,77.5C 86.423,76.7289 83.923,75.7289 81.5,74.5C 82.2458,73.2638 82.5792,71.9305 82.5,70.5C 83.5,70.5 84.5,70.5 85.5,70.5C 85.6495,69.448 85.4828,68.448 85,67.5C 84.3457,68.6956 83.8457,68.6956 83.5,67.5C 83.9767,66.5224 84.6433,65.6891 85.5,65C 84.617,61.6696 82.617,59.3362 79.5,58C 81.4899,56.2494 83.8232,55.2494 86.5,55C 78.658,53.6641 78.658,52.1641 86.5,50.5C 98.803,49.5818 111.136,49.2484 123.5,49.5 Z"/></g>
<g><path style="opacity:1" fill="#1f2e47" d="M 10.5,44.5 C 10.5,47.5 10.5,50.5 10.5,53.5C 6.47801,62.9646 4.81134,72.9646 5.5,83.5C 4.63913,88.6091 3.3058,93.6091 1.5,98.5C 1.5,90.8333 1.5,83.1667 1.5,75.5C 2.69517,68.3166 3.86184,60.9833 5,53.5C 6.34393,50.1349 8.17727,47.1349 10.5,44.5 Z"/></g>
<g><path style="opacity:1" fill="#896f77" d="M 45.5,67.5 C 49.9148,68.6771 50.5814,71.0104 47.5,74.5C 47.8627,75.1835 48.1961,75.8501 48.5,76.5C 47.1667,77.1667 47.1667,77.8333 48.5,78.5C 46.8816,80.316 44.8816,81.6493 42.5,82.5C 41.2402,80.6329 39.5735,79.2995 37.5,78.5C 40.5153,75.4678 42.182,71.8012 42.5,67.5C 43.5,67.5 44.5,67.5 45.5,67.5 Z"/></g>
<g><path style="opacity:1" fill="#c27c64" d="M 51.5,63.5 C 52.9587,63.4326 54.2921,63.7659 55.5,64.5C 59.5424,68.071 63.5424,71.9044 67.5,76C 69.2166,77.5588 71.2166,78.3921 73.5,78.5C 74.1667,78.5 74.8333,78.5 75.5,78.5C 78.1354,79.8109 80.4687,81.4776 82.5,83.5C 80.6208,84.3414 78.6208,84.6747 76.5,84.5C 76.5,83.1667 76.5,81.8333 76.5,80.5C 75.448,80.3505 74.448,80.5172 73.5,81C 72.8366,82.5185 71.8366,83.6851 70.5,84.5C 68.5682,82.5351 66.9015,80.2017 65.5,77.5C 63.9547,76.5481 62.288,76.2148 60.5,76.5C 58.6753,74.1969 56.8419,71.8636 55,69.5C 54.5078,70.549 54.6744,71.549 55.5,72.5C 53.9547,73.4519 52.288,73.7852 50.5,73.5C 50.2606,71.5328 50.5939,69.6995 51.5,68C 49.0688,66.9076 49.0688,65.7409 51.5,64.5C 51.5,64.1667 51.5,63.8333 51.5,63.5 Z"/></g>
<g><path style="opacity:1" fill="#aac6ee" d="M 49.5,49.5 C 50.1667,49.5 50.8333,49.5 51.5,49.5C 50.0484,50.3019 48.3817,50.8019 46.5,51C 48.3759,52.0173 50.3759,52.8506 52.5,53.5C 50.2573,54.4742 47.924,54.8076 45.5,54.5C 45.67,55.8221 45.3366,56.9887 44.5,58C 45.3805,58.7083 46.0472,59.5416 46.5,60.5C 45.6618,60.8417 45.3284,61.5084 45.5,62.5C 45.5,64.1667 45.5,65.8333 45.5,67.5C 44.5,67.5 43.5,67.5 42.5,67.5C 42.182,71.8012 40.5153,75.4678 37.5,78.5C 37.0051,83.0274 38.6718,84.3607 42.5,82.5C 44.8816,81.6493 46.8816,80.316 48.5,78.5C 50.4672,78.2606 52.3005,78.5939 54,79.5C 55.8458,83.8547 57.6791,88.1881 59.5,92.5C 58.791,93.404 57.791,93.7373 56.5,93.5C 56.5,92.5 56.5,91.5 56.5,90.5C 52.8687,90.0323 49.5354,90.699 46.5,92.5C 45.293,90.4589 43.6263,89.1255 41.5,88.5C 39.6363,86.7817 37.3029,85.615 34.5,85C 35.1667,84.6667 35.8333,84.3333 36.5,84C 34.9984,83.4169 33.6651,82.5836 32.5,81.5C 33.1654,79.8988 33.4988,78.3988 33.5,77C 31.2028,73.1348 31.5362,69.4681 34.5,66C 30.5664,63.1219 30.5664,60.2886 34.5,57.5C 33.2299,56.7124 32.2299,55.7124 31.5,54.5C 33.6723,53.1983 36.0056,52.0317 38.5,51C 37.5,50.6667 36.5,50.3333 35.5,50C 40.1548,49.5008 44.8215,49.3342 49.5,49.5 Z"/></g>
<g><path style="opacity:1" fill="#845351" d="M 45.5,62.5 C 46.1577,63.3984 46.8243,64.3984 47.5,65.5C 48.7362,64.7542 50.0695,64.4208 51.5,64.5C 49.0688,65.7409 49.0688,66.9076 51.5,68C 50.5939,69.6995 50.2606,71.5328 50.5,73.5C 52.288,73.7852 53.9547,73.4519 55.5,72.5C 54.6744,71.549 54.5078,70.549 55,69.5C 56.8419,71.8636 58.6753,74.1969 60.5,76.5C 59.7222,77.1556 59.0556,77.9889 58.5,79C 59.2489,81.4966 59.9155,83.9966 60.5,86.5C 59.5041,86.5858 58.6708,86.2524 58,85.5C 56.7304,81.8583 55.5638,78.1916 54.5,74.5C 53.6143,75.325 53.281,76.325 53.5,77.5C 51.5853,77.7845 49.9187,77.4511 48.5,76.5C 48.1961,75.8501 47.8627,75.1835 47.5,74.5C 50.5814,71.0104 49.9148,68.6771 45.5,67.5C 45.5,65.8333 45.5,64.1667 45.5,62.5 Z"/></g>
<g><path style="opacity:1" fill="#4a5470" d="M 37.5,78.5 C 39.5735,79.2995 41.2402,80.6329 42.5,82.5C 38.6718,84.3607 37.0051,83.0274 37.5,78.5 Z"/></g>
<g><path style="opacity:1" fill="#cd683c" d="M 112.5,81.5 C 116.102,81.6924 119.102,83.0257 121.5,85.5C 117.539,86.6927 114.539,85.3594 112.5,81.5 Z"/></g>
<g><path style="opacity:1" fill="#e8a373" d="M 111.5,81.5 C 111.833,81.5 112.167,81.5 112.5,81.5C 114.539,85.3594 117.539,86.6927 121.5,85.5C 122.167,85.8333 122.833,86.1667 123.5,86.5C 123.5,88.8333 123.5,91.1667 123.5,93.5C 122.222,93.2178 121.222,92.5511 120.5,91.5C 119.551,88.0767 117.884,87.7434 115.5,90.5C 114.482,89.8075 113.482,89.1408 112.5,88.5C 110.854,86.1878 108.854,84.1878 106.5,82.5C 108.045,81.5481 109.712,81.2148 111.5,81.5 Z"/></g>
<g><path style="opacity:1" fill="#b37972" d="M 60.5,76.5 C 62.288,76.2148 63.9547,76.5481 65.5,77.5C 66.9015,80.2017 68.5682,82.5351 70.5,84.5C 70.5394,85.5832 70.8728,86.5832 71.5,87.5C 73.7707,88.6995 76.104,89.6995 78.5,90.5C 78.5,91.1667 78.5,91.8333 78.5,92.5C 76.9902,91.2721 75.4902,91.2721 74,92.5C 73.6667,91.8333 73.3333,91.1667 73,90.5C 71.8873,91.305 70.7206,91.9717 69.5,92.5C 69.4142,91.5041 69.7476,90.6708 70.5,90C 68.1438,88.0467 66.6438,85.5467 66,82.5C 65.6967,86.0043 64.8634,89.3376 63.5,92.5C 62.2264,91.2207 61.2264,89.2207 60.5,86.5C 59.9155,83.9966 59.2489,81.4966 58.5,79C 59.0556,77.9889 59.7222,77.1556 60.5,76.5 Z"/></g>
<g><path style="opacity:1" fill="#a15c4d" d="M 82.5,83.5 C 88.0687,83.624 93.402,82.9573 98.5,81.5C 99.5,81.5 100.5,81.5 101.5,81.5C 102.5,81.5 103.5,81.5 104.5,81.5C 103.198,83.0276 101.531,84.0276 99.5,84.5C 97.3512,87.6045 94.5178,88.6045 91,87.5C 89.605,87.7804 88.4383,88.4471 87.5,89.5C 90.7027,93.9604 94.036,98.2937 97.5,102.5C 99.6552,102.838 101.989,102.838 104.5,102.5C 104.5,103.167 104.167,103.5 103.5,103.5C 101.712,103.971 99.8784,104.304 98,104.5C 92.7016,102.928 87.2016,102.094 81.5,102C 80.6634,100.989 80.33,99.8221 80.5,98.5C 81.287,96.8958 82.6203,96.2291 84.5,96.5C 84.5,93.8333 84.5,91.1667 84.5,88.5C 83.1779,88.67 82.0113,88.3366 81,87.5C 80.1482,88.5707 79.3149,89.5707 78.5,90.5C 76.104,89.6995 73.7707,88.6995 71.5,87.5C 70.8728,86.5832 70.5394,85.5832 70.5,84.5C 71.8366,83.6851 72.8366,82.5185 73.5,81C 74.448,80.5172 75.448,80.3505 76.5,80.5C 76.5,81.8333 76.5,83.1667 76.5,84.5C 78.6208,84.6747 80.6208,84.3414 82.5,83.5 Z"/></g>
<g><path style="opacity:1" fill="#d18c66" d="M 99.5,84.5 C 101.093,85.3479 102.26,86.6813 103,88.5C 103.333,87.1667 103.667,85.8333 104,84.5C 105.195,88.7514 105.695,93.0848 105.5,97.5C 103.957,96.2642 102.957,94.5976 102.5,92.5C 100.604,91.5344 98.604,91.2011 96.5,91.5C 97.209,90.596 98.209,90.2627 99.5,90.5C 99.5,88.5 99.5,86.5 99.5,84.5 Z"/></g>
<g><path style="opacity:1" fill="#d58b64" d="M 112.5,88.5 C 113.482,89.1408 114.482,89.8075 115.5,90.5C 117.884,87.7434 119.551,88.0767 120.5,91.5C 119.448,91.3505 118.448,91.5172 117.5,92C 118.474,96.4356 118.474,100.936 117.5,105.5C 116.167,105.167 114.833,104.833 113.5,104.5C 112.833,104.5 112.5,104.167 112.5,103.5C 112.299,100.272 112.633,97.1052 113.5,94C 111.784,91.959 110.118,89.959 108.5,88C 108.667,87.5 108.833,87 109,86.5C 109.816,87.8228 110.983,88.4894 112.5,88.5 Z"/></g>
<g><path style="opacity:1" fill="#b86b4c" d="M 99.5,84.5 C 99.5,86.5 99.5,88.5 99.5,90.5C 98.209,90.2627 97.209,90.596 96.5,91.5C 94.9955,94.5007 95.4955,97.1673 98,99.5C 102.068,95.3388 104.235,96.3388 104.5,102.5C 101.989,102.838 99.6552,102.838 97.5,102.5C 94.036,98.2937 90.7027,93.9604 87.5,89.5C 88.4383,88.4471 89.605,87.7804 91,87.5C 94.5178,88.6045 97.3512,87.6045 99.5,84.5 Z"/></g>
<g><path style="opacity:1" fill="#ce9b86" d="M 96.5,91.5 C 98.604,91.2011 100.604,91.5344 102.5,92.5C 102.957,94.5976 103.957,96.2642 105.5,97.5C 106.096,98.9354 106.096,100.602 105.5,102.5C 105.167,102.5 104.833,102.5 104.5,102.5C 104.235,96.3388 102.068,95.3388 98,99.5C 95.4955,97.1673 94.9955,94.5007 96.5,91.5 Z"/></g>
<g><path style="opacity:1" fill="#895f6a" d="M 69.5,92.5 C 68.1825,94.751 66.5158,96.751 64.5,98.5C 64.5191,96.9397 64.8524,95.4397 65.5,94C 65.1639,92.9701 64.4972,92.4701 63.5,92.5C 64.8634,89.3376 65.6967,86.0043 66,82.5C 66.6438,85.5467 68.1438,88.0467 70.5,90C 69.7476,90.6708 69.4142,91.5041 69.5,92.5 Z"/></g>
<g><path style="opacity:1" fill="#667d95" d="M 37.5,88.5 C 38.8333,88.5 40.1667,88.5 41.5,88.5C 43.6263,89.1255 45.293,90.4589 46.5,92.5C 49.5354,90.699 52.8687,90.0323 56.5,90.5C 56.5,91.5 56.5,92.5 56.5,93.5C 57.791,93.7373 58.791,93.404 59.5,92.5C 60.2302,96.0606 60.8969,99.7272 61.5,103.5C 60.8333,103.5 60.1667,103.5 59.5,103.5C 57.8325,101.521 57.1658,99.188 57.5,96.5C 53.4183,96.3436 49.4183,96.8436 45.5,98C 48.1667,99 48.1667,100 45.5,101C 48.0026,102.549 48.0026,104.216 45.5,106C 47.6447,106.743 47.8114,107.576 46,108.5C 44.3593,106.861 42.526,105.527 40.5,104.5C 37.6725,101.306 38.0058,98.473 41.5,96C 40.1854,94.6054 40.5188,93.6054 42.5,93C 41.0267,92.2904 40.3601,91.1238 40.5,89.5C 39.209,89.7373 38.209,89.404 37.5,88.5 Z"/></g>
<g><path style="opacity:1" fill="#b28a8b" d="M 78.5,92.5 C 75.9447,95.636 74.9447,99.3027 75.5,103.5C 71.2561,105.247 68.5894,103.914 67.5,99.5C 66.5,99.5 65.5,99.5 64.5,99.5C 64.5,99.1667 64.5,98.8333 64.5,98.5C 66.5158,96.751 68.1825,94.751 69.5,92.5C 70.7206,91.9717 71.8873,91.305 73,90.5C 73.3333,91.1667 73.6667,91.8333 74,92.5C 75.4902,91.2721 76.9902,91.2721 78.5,92.5 Z"/></g>
<g><path style="opacity:1" fill="#5c6e89" d="M 15.5,86.5 C 20.8028,88.1657 26.1362,89.8323 31.5,91.5C 32.3857,90.675 32.719,89.675 32.5,88.5C 34.1667,88.5 35.8333,88.5 37.5,88.5C 38.209,89.404 39.209,89.7373 40.5,89.5C 40.3601,91.1238 41.0267,92.2904 42.5,93C 40.5188,93.6054 40.1854,94.6054 41.5,96C 38.0058,98.473 37.6725,101.306 40.5,104.5C 38.2151,103.454 35.8817,103.454 33.5,104.5C 33.8841,106.665 33.2174,108.332 31.5,109.5C 30.6143,108.675 30.281,107.675 30.5,106.5C 28.1046,105.637 25.7713,105.637 23.5,106.5C 24.4279,107.768 24.5946,109.101 24,110.5C 21.791,108.294 19.291,107.96 16.5,109.5C 16.24,108.095 15.9066,106.762 15.5,105.5C 15.3561,99.3174 15.3561,92.984 15.5,86.5 Z"/></g>
<g><path style="opacity:1" fill="#bc7d65" d="M 80.5,98.5 C 79.5041,98.5858 78.6708,98.2524 78,97.5C 77.8142,99.9005 77.3142,102.234 76.5,104.5C 75.8933,104.376 75.56,104.043 75.5,103.5C 74.9447,99.3027 75.9447,95.636 78.5,92.5C 78.5,91.8333 78.5,91.1667 78.5,90.5C 79.3149,89.5707 80.1482,88.5707 81,87.5C 82.0113,88.3366 83.1779,88.67 84.5,88.5C 84.5,91.1667 84.5,93.8333 84.5,96.5C 82.6203,96.2291 81.287,96.8958 80.5,98.5 Z"/></g>
<g><path style="opacity:1" fill="#52606b" d="M 11.5,86.5 C 12.8333,86.5 14.1667,86.5 15.5,86.5C 15.3561,92.984 15.3561,99.3174 15.5,105.5C 14.021,107.72 12.6877,110.054 11.5,112.5C 11.5,103.833 11.5,95.1667 11.5,86.5 Z"/></g>
<g><path style="opacity:1" fill="#ab6040" d="M 111.5,81.5 C 109.712,81.2148 108.045,81.5481 106.5,82.5C 108.854,84.1878 110.854,86.1878 112.5,88.5C 110.983,88.4894 109.816,87.8228 109,86.5C 108.833,87 108.667,87.5 108.5,88C 110.118,89.959 111.784,91.959 113.5,94C 112.633,97.1052 112.299,100.272 112.5,103.5C 111,102.412 109.667,101.079 108.5,99.5C 107.081,100.005 106.415,101.005 106.5,102.5C 106.167,102.5 105.833,102.5 105.5,102.5C 106.096,100.602 106.096,98.9354 105.5,97.5C 105.695,93.0848 105.195,88.7514 104,84.5C 103.667,85.8333 103.333,87.1667 103,88.5C 102.26,86.6813 101.093,85.3479 99.5,84.5C 101.531,84.0276 103.198,83.0276 104.5,81.5C 106.833,80.1667 109.167,80.1667 111.5,81.5 Z"/></g>
<g><path style="opacity:1" fill="#353e58" d="M 5.5,83.5 C 5.5,86.5 5.5,89.5 5.5,92.5C 5.27144,99.5151 4.77144,106.515 4,113.5C 3.76791,114.737 3.26791,115.737 2.5,116.5C 1.73685,114.632 0.736849,112.965 -0.5,111.5C -0.5,108.167 -0.5,104.833 -0.5,101.5C 0.906316,101.027 1.57298,100.027 1.5,98.5C 3.3058,93.6091 4.63913,88.6091 5.5,83.5 Z"/></g>
<g><path style="opacity:1" fill="#b3612f" d="M 120.5,91.5 C 121.222,92.5511 122.222,93.2178 123.5,93.5C 123.5,96.5 123.5,99.5 123.5,102.5C 122.069,103.78 121.402,105.447 121.5,107.5C 120.842,108.398 120.176,109.398 119.5,110.5C 118.893,110.376 118.56,110.043 118.5,109.5C 119.954,107.737 119.62,106.403 117.5,105.5C 118.474,100.936 118.474,96.4356 117.5,92C 118.448,91.5172 119.448,91.3505 120.5,91.5 Z"/></g>
<g><path style="opacity:1" fill="#47557f" d="M 10.5,72.5 C 10.1818,77.0323 10.5151,81.3656 11.5,85.5C 11.5,85.8333 11.5,86.1667 11.5,86.5C 11.5,95.1667 11.5,103.833 11.5,112.5C 10.5655,113.568 10.2322,114.901 10.5,116.5C 10.5,118.5 10.5,120.5 10.5,122.5C 7.07873,121.461 4.41206,119.461 2.5,116.5C 3.26791,115.737 3.76791,114.737 4,113.5C 4.77144,106.515 5.27144,99.5151 5.5,92.5C 7.16689,85.8307 8.83356,79.164 10.5,72.5 Z"/></g>
<g><path style="opacity:1" fill="#855b58" d="M 80.5,98.5 C 80.33,99.8221 80.6634,100.989 81.5,102C 87.2016,102.094 92.7016,102.928 98,104.5C 99.8784,104.304 101.712,103.971 103.5,103.5C 103.5,104.167 103.5,104.833 103.5,105.5C 101.938,105.733 100.605,106.4 99.5,107.5C 95.6702,106.732 91.8369,105.732 88,104.5C 83.609,105.122 79.7756,106.788 76.5,109.5C 74.4947,110.124 72.8281,109.29 71.5,107C 70.5838,106.626 69.7504,106.126 69,105.5C 68.6012,105.728 68.4346,106.062 68.5,106.5C 66.9069,105.652 65.7403,104.319 65,102.5C 64.5172,101.552 64.3505,100.552 64.5,99.5C 65.5,99.5 66.5,99.5 67.5,99.5C 68.5894,103.914 71.2561,105.247 75.5,103.5C 75.56,104.043 75.8933,104.376 76.5,104.5C 77.3142,102.234 77.8142,99.9005 78,97.5C 78.6708,98.2524 79.5041,98.5858 80.5,98.5 Z"/></g>
<g><path style="opacity:1" fill="#1c1f2d" d="M 104.5,102.5 C 104.833,102.5 105.167,102.5 105.5,102.5C 105.833,102.5 106.167,102.5 106.5,102.5C 108.729,103.055 110.395,104.389 111.5,106.5C 110.286,108.754 108.619,109.087 106.5,107.5C 106.027,106.094 105.027,105.427 103.5,105.5C 103.5,104.833 103.5,104.167 103.5,103.5C 104.167,103.5 104.5,103.167 104.5,102.5 Z"/></g>
<g><path style="opacity:1" fill="#604e60" d="M 60.5,86.5 C 61.2264,89.2207 62.2264,91.2207 63.5,92.5C 64.4972,92.4701 65.1639,92.9701 65.5,94C 64.8524,95.4397 64.5191,96.9397 64.5,98.5C 64.5,98.8333 64.5,99.1667 64.5,99.5C 64.3505,100.552 64.5172,101.552 65,102.5C 65.7403,104.319 66.9069,105.652 68.5,106.5C 68.8973,108.963 70.0639,110.963 72,112.5C 72.4196,116.191 72.9196,119.858 73.5,123.5C 72.8333,123.5 72.1667,123.5 71.5,123.5C 71.6061,120.921 70.9395,118.588 69.5,116.5C 67.5824,111.657 64.9157,107.323 61.5,103.5C 60.8969,99.7272 60.2302,96.0606 59.5,92.5C 57.6791,88.1881 55.8458,83.8547 54,79.5C 52.3005,78.5939 50.4672,78.2606 48.5,78.5C 47.1667,77.8333 47.1667,77.1667 48.5,76.5C 49.9187,77.4511 51.5853,77.7845 53.5,77.5C 53.281,76.325 53.6143,75.325 54.5,74.5C 55.5638,78.1916 56.7304,81.8583 58,85.5C 58.6708,86.2524 59.5041,86.5858 60.5,86.5 Z"/></g>
<g><path style="opacity:1" fill="#4d3a47" d="M 99.5,107.5 C 97.1667,108.167 94.8333,108.833 92.5,109.5C 87.1667,109.5 81.8333,109.5 76.5,109.5C 79.7756,106.788 83.609,105.122 88,104.5C 91.8369,105.732 95.6702,106.732 99.5,107.5 Z"/></g>
<g><path style="opacity:0.771" fill="#cfc4b4" d="M 123.5,102.5 C 123.5,105.5 123.5,108.5 123.5,111.5C 122.833,112.167 122.167,112.833 121.5,113.5C 121.5,111.5 121.5,109.5 121.5,107.5C 121.402,105.447 122.069,103.78 123.5,102.5 Z"/></g>
<g><path style="opacity:1" fill="#667588" d="M 59.5,103.5 C 59.5,104.833 59.5,106.167 59.5,107.5C 60.5,107.5 61.5,107.5 62.5,107.5C 62.4386,109.592 61.4386,111.092 59.5,112C 43.4756,112.228 27.4756,112.728 11.5,113.5C 11.7373,114.791 11.404,115.791 10.5,116.5C 10.2322,114.901 10.5655,113.568 11.5,112.5C 12.6877,110.054 14.021,107.72 15.5,105.5C 15.9066,106.762 16.24,108.095 16.5,109.5C 19.291,107.96 21.791,108.294 24,110.5C 24.5946,109.101 24.4279,107.768 23.5,106.5C 25.7713,105.637 28.1046,105.637 30.5,106.5C 30.281,107.675 30.6143,108.675 31.5,109.5C 33.2174,108.332 33.8841,106.665 33.5,104.5C 35.8817,103.454 38.2151,103.454 40.5,104.5C 42.526,105.527 44.3593,106.861 46,108.5C 47.8114,107.576 47.6447,106.743 45.5,106C 48.0026,104.216 48.0026,102.549 45.5,101C 48.1667,100 48.1667,99 45.5,98C 49.4183,96.8436 53.4183,96.3436 57.5,96.5C 57.1658,99.188 57.8325,101.521 59.5,103.5 Z"/></g>
<g><path style="opacity:1" fill="#c7835d" d="M 121.5,107.5 C 121.5,109.5 121.5,111.5 121.5,113.5C 121.672,114.492 121.338,115.158 120.5,115.5C 119.596,114.791 119.263,113.791 119.5,112.5C 117.654,112.778 116.32,112.111 115.5,110.5C 116.325,109.614 117.325,109.281 118.5,109.5C 118.56,110.043 118.893,110.376 119.5,110.5C 120.176,109.398 120.842,108.398 121.5,107.5 Z"/></g>
<g><path style="opacity:1" fill="#413132" d="M 112.5,103.5 C 112.5,104.167 112.833,104.5 113.5,104.5C 114.372,107.579 114.372,110.579 113.5,113.5C 112.233,116.272 112.233,118.939 113.5,121.5C 113.158,122.338 112.492,122.672 111.5,122.5C 110.46,118.315 109.127,114.315 107.5,110.5C 107.443,109.391 107.11,108.391 106.5,107.5C 108.619,109.087 110.286,108.754 111.5,106.5C 110.395,104.389 108.729,103.055 106.5,102.5C 106.415,101.005 107.081,100.005 108.5,99.5C 109.667,101.079 111,102.412 112.5,103.5 Z"/></g>
<g><path style="opacity:1" fill="#734a3e" d="M 113.5,104.5 C 114.833,104.833 116.167,105.167 117.5,105.5C 119.62,106.403 119.954,107.737 118.5,109.5C 117.325,109.281 116.325,109.614 115.5,110.5C 116.32,112.111 117.654,112.778 119.5,112.5C 119.263,113.791 119.596,114.791 120.5,115.5C 120.573,117.027 119.906,118.027 118.5,118.5C 116.797,117.34 116.131,118.007 116.5,120.5C 116.167,120.5 115.833,120.5 115.5,120.5C 114.935,118.048 114.268,115.715 113.5,113.5C 114.372,110.579 114.372,107.579 113.5,104.5 Z"/></g>
<g><path style="opacity:1" fill="#a9a9a9" d="M 59.5,103.5 C 60.1667,103.5 60.8333,103.5 61.5,103.5C 64.9157,107.323 67.5824,111.657 69.5,116.5C 50.1117,114.892 30.7784,115.225 11.5,117.5C 11.5,119.167 11.5,120.833 11.5,122.5C 11.1667,122.5 10.8333,122.5 10.5,122.5C 10.5,120.5 10.5,118.5 10.5,116.5C 11.404,115.791 11.7373,114.791 11.5,113.5C 27.4756,112.728 43.4756,112.228 59.5,112C 61.4386,111.092 62.4386,109.592 62.5,107.5C 61.5,107.5 60.5,107.5 59.5,107.5C 59.5,106.167 59.5,104.833 59.5,103.5 Z"/></g>
<g><path style="opacity:1" fill="#ab8483" d="M 76.5,109.5 C 81.8333,109.5 87.1667,109.5 92.5,109.5C 87.3595,110.488 82.0262,110.821 76.5,110.5C 76.5,114.833 76.5,119.167 76.5,123.5C 75.5,123.5 74.5,123.5 73.5,123.5C 72.9196,119.858 72.4196,116.191 72,112.5C 70.0639,110.963 68.8973,108.963 68.5,106.5C 68.4346,106.062 68.6012,105.728 69,105.5C 69.7504,106.126 70.5838,106.626 71.5,107C 72.8281,109.29 74.4947,110.124 76.5,109.5 Z"/></g>
<g><path style="opacity:1" fill="#bdc2b5" d="M 107.5,110.5 C 109.127,114.315 110.46,118.315 111.5,122.5C 111.5,122.833 111.5,123.167 111.5,123.5C 106.833,123.5 102.167,123.5 97.5,123.5C 98.1534,122.193 98.8201,120.86 99.5,119.5C 92.6641,118.435 85.9975,116.935 79.5,115C 79.0426,114.586 78.7093,114.086 78.5,113.5C 88.5349,113.152 98.2016,112.152 107.5,110.5 Z"/></g>
<g><path style="opacity:1" fill="#b4745a" d="M 113.5,113.5 C 114.268,115.715 114.935,118.048 115.5,120.5C 115.158,121.338 114.492,121.672 113.5,121.5C 112.233,118.939 112.233,116.272 113.5,113.5 Z"/></g>
<g><path style="opacity:0.812" fill="#c1c0ad" d="M 118.5,118.5 C 118.167,119.5 117.5,120.167 116.5,120.5C 116.131,118.007 116.797,117.34 118.5,118.5 Z"/></g>
<g><path style="opacity:1" fill="#c8bec9" d="M 69.5,116.5 C 70.9395,118.588 71.6061,120.921 71.5,123.5C 51.5,123.5 31.5,123.5 11.5,123.5C 11.5,123.167 11.5,122.833 11.5,122.5C 11.5,120.833 11.5,119.167 11.5,117.5C 30.7784,115.225 50.1117,114.892 69.5,116.5 Z"/></g>
<g><path style="opacity:1" fill="#c3c7c3" d="M 103.5,105.5 C 105.027,105.427 106.027,106.094 106.5,107.5C 107.11,108.391 107.443,109.391 107.5,110.5C 98.2016,112.152 88.5349,113.152 78.5,113.5C 78.7093,114.086 79.0426,114.586 79.5,115C 85.9975,116.935 92.6641,118.435 99.5,119.5C 98.8201,120.86 98.1534,122.193 97.5,123.5C 90.5,123.5 83.5,123.5 76.5,123.5C 76.5,119.167 76.5,114.833 76.5,110.5C 82.0262,110.821 87.3595,110.488 92.5,109.5C 94.8333,108.833 97.1667,108.167 99.5,107.5C 100.605,106.4 101.938,105.733 103.5,105.5 Z"/></g>
</svg>
