<?xml version="1.0" encoding="UTF-8"?>
<!DOCTYPE svg PUBLIC "-//W3C//DTD SVG 1.1//EN" "http://www.w3.org/Graphics/SVG/1.1/DTD/svg11.dtd">
<svg xmlns="http://www.w3.org/2000/svg" version="1.1" width="124px" height="124px" style="shape-rendering:geometricPrecision; text-rendering:geometricPrecision; image-rendering:optimizeQuality; fill-rule:evenodd; clip-rule:evenodd" xmlns:xlink="http://www.w3.org/1999/xlink">
<g><path style="opacity:0.992" fill="#f9f9f9" d="M 11.5,-0.5 C 28.5,-0.5 45.5,-0.5 62.5,-0.5C 62.5,0.5 62.5,1.5 62.5,2.5C 47.324,2.17056 32.324,2.50389 17.5,3.5C 17.5,7.16667 17.5,10.8333 17.5,14.5C 17.5,49.8333 17.5,85.1667 17.5,120.5C 17.5,120.833 17.5,121.167 17.5,121.5C 16.5043,108.01 16.171,94.3435 16.5,80.5C 11.2649,78.55 5.59821,77.8833 -0.5,78.5C -0.5,56.1667 -0.5,33.8333 -0.5,11.5C 1.83333,5.83333 5.83333,1.83333 11.5,-0.5 Z"/></g>
<g><path style="opacity:0.919" fill="#fcfcfc" d="M 97.5,-0.5 C 102.167,-0.5 106.833,-0.5 111.5,-0.5C 112.833,0.5 114.167,1.5 115.5,2.5C 109.824,2.66609 104.157,2.49942 98.5,2C 97.7476,1.32924 97.4142,0.495904 97.5,-0.5 Z"/></g>
<g><path style="opacity:1" fill="#a6a6c9" d="M 62.5,-0.5 C 63.8333,-0.5 65.1667,-0.5 66.5,-0.5C 66.5,0.5 66.5,1.5 66.5,2.5C 76.5222,2.83186 86.5222,2.49852 96.5,1.5C 96.1373,0.816537 95.8039,0.14987 95.5,-0.5C 96.1667,-0.5 96.8333,-0.5 97.5,-0.5C 97.4142,0.495904 97.7476,1.32924 98.5,2C 104.157,2.49942 109.824,2.66609 115.5,2.5C 115.833,2.5 116.167,2.5 116.5,2.5C 84.0043,3.49826 51.3376,3.83159 18.5,3.5C 18.1667,3.5 17.8333,3.5 17.5,3.5C 32.324,2.50389 47.324,2.17056 62.5,2.5C 62.5,1.5 62.5,0.5 62.5,-0.5 Z"/></g>
<g><path style="opacity:1" fill="#fcfcfc" d="M 66.5,-0.5 C 76.1667,-0.5 85.8333,-0.5 95.5,-0.5C 95.8039,0.14987 96.1373,0.816537 96.5,1.5C 86.5222,2.49852 76.5222,2.83186 66.5,2.5C 66.5,1.5 66.5,0.5 66.5,-0.5 Z"/></g>
<g><path style="opacity:1" fill="#070581" d="M 116.5,2.5 C 119.558,4.9573 121.892,7.9573 123.5,11.5C 123.5,12.1667 123.5,12.8333 123.5,13.5C 88.5,13.5 53.5,13.5 18.5,13.5C 18.5,10.1667 18.5,6.83333 18.5,3.5C 51.3376,3.83159 84.0043,3.49826 116.5,2.5 Z"/></g>
<g><path style="opacity:1" fill="#9896ca" d="M 21.5,6.5 C 27.4052,6.92131 33.2385,7.58798 39,8.5C 40.5445,7.17875 41.7112,7.51208 42.5,9.5C 40.5,9.83333 38.5,10.1667 36.5,10.5C 34.0363,10.4101 31.8697,9.74346 30,8.5C 27.1963,10.3444 24.0297,11.0111 20.5,10.5C 20.4326,9.04125 20.7659,7.70792 21.5,6.5 Z"/></g>
<g><path style="opacity:1" fill="#3c3c94" d="M 17.5,3.5 C 17.8333,3.5 18.1667,3.5 18.5,3.5C 18.5,6.83333 18.5,10.1667 18.5,13.5C 53.5,13.5 88.5,13.5 123.5,13.5C 123.5,13.8333 123.5,14.1667 123.5,14.5C 88.1667,14.5 52.8333,14.5 17.5,14.5C 17.5,10.8333 17.5,7.16667 17.5,3.5 Z"/></g>
<g><path style="opacity:1" fill="#aeaeae" d="M 10.5,13.5 C 12.6133,14.2563 14.6133,14.4229 16.5,14C 15.1667,14.6667 15.1667,15.3333 16.5,16C 14.5273,16.4955 12.5273,16.6621 10.5,16.5C 10.5,15.5 10.5,14.5 10.5,13.5 Z"/></g>
<g><path style="opacity:1" fill="#adadad" d="M 17.5,14.5 C 52.8333,14.5 88.1667,14.5 123.5,14.5C 123.5,15.8333 123.5,17.1667 123.5,18.5C 89.8333,18.5 56.1667,18.5 22.5,18.5C 22.5,21.5 22.5,24.5 22.5,27.5C 21.7684,24.5651 21.1018,20.8985 20.5,16.5C 19.5078,20.7828 19.1744,25.1161 19.5,29.5C 54.1667,29.5 88.8333,29.5 123.5,29.5C 123.5,29.8333 123.5,30.1667 123.5,30.5C 88.8333,30.5 54.1667,30.5 19.5,30.5C 19.5,59.8333 19.5,89.1667 19.5,118.5C 18.6618,118.842 18.3284,119.508 18.5,120.5C 18.1667,120.5 17.8333,120.5 17.5,120.5C 17.5,85.1667 17.5,49.8333 17.5,14.5 Z"/></g>
<g><path style="opacity:1" fill="#bdbdbd" d="M 22.5,27.5 C 56.1667,27.5 89.8333,27.5 123.5,27.5C 123.5,28.1667 123.5,28.8333 123.5,29.5C 88.8333,29.5 54.1667,29.5 19.5,29.5C 19.1744,25.1161 19.5078,20.7828 20.5,16.5C 21.1018,20.8985 21.7684,24.5651 22.5,27.5 Z"/></g>
<g><path style="opacity:1" fill="#fcfcfc" d="M 123.5,18.5 C 123.5,21.5 123.5,24.5 123.5,27.5C 89.8333,27.5 56.1667,27.5 22.5,27.5C 22.5,24.5 22.5,21.5 22.5,18.5C 56.1667,18.5 89.8333,18.5 123.5,18.5 Z"/></g>
<g><path style="opacity:1" fill="#9a9a9a" d="M 24.5,20.5 C 28.0641,21.4227 31.7307,21.756 35.5,21.5C 35.5,22.5 35.5,23.5 35.5,24.5C 31.9292,25.0874 28.2625,25.0874 24.5,24.5C 24.5,23.1667 24.5,21.8333 24.5,20.5 Z"/></g>
<g><path style="opacity:1" fill="#aaaaaa" d="M 39.5,20.5 C 43.7899,21.1111 48.1233,21.7777 52.5,22.5C 52.1131,23.7199 51.2798,24.3865 50,24.5C 47.3333,24.5 44.6667,24.5 42,24.5C 40.4053,23.6443 39.572,22.3109 39.5,20.5 Z"/></g>
<g><path style="opacity:1" fill="#a9a9a9" d="M 64.5,20.5 C 67.179,20.5246 68.5123,21.858 68.5,24.5C 63.5167,24.71 58.5167,25.0433 53.5,25.5C 53.5,24.1667 53.5,22.8333 53.5,21.5C 56.6163,21.7114 59.4497,22.0447 62,22.5C 62.9947,21.9341 63.828,21.2674 64.5,20.5 Z"/></g>
<g><path style="opacity:1" fill="#b1b1b1" d="M 70.5,21.5 C 73.5,21.5 76.5,21.5 79.5,21.5C 79.6495,22.552 79.4828,23.552 79,24.5C 77.3718,23.9034 75.7051,24.2367 74,25.5C 72.4905,24.9103 70.9905,24.2436 69.5,23.5C 69.8627,22.8165 70.1961,22.1499 70.5,21.5 Z"/></g>
<g><path style="opacity:1" fill="#fafafa" d="M 123.5,30.5 C 123.5,37.1667 123.5,43.8333 123.5,50.5C 119.981,50.2593 117.315,51.5926 115.5,54.5C 114.167,56.5 114.167,58.5 115.5,60.5C 116.6,61.6049 117.267,62.9382 117.5,64.5C 115.692,65.9179 115.025,67.9179 115.5,70.5C 115.5,71.1667 115.5,71.8333 115.5,72.5C 112.591,75.6997 113.258,78.1997 117.5,80C 119.473,80.4955 121.473,80.6621 123.5,80.5C 123.5,87.5 123.5,94.5 123.5,101.5C 121.265,101.795 119.265,101.461 117.5,100.5C 117.5,98.8333 117.5,97.1667 117.5,95.5C 114.091,96.9768 111.091,96.3101 108.5,93.5C 106.821,95.1045 104.821,95.7711 102.5,95.5C 102.307,99.449 101.807,99.449 101,95.5C 100.51,96.7932 100.343,98.1266 100.5,99.5C 105.294,98.9031 109.627,99.5698 113.5,101.5C 84.5,101.5 55.5,101.5 26.5,101.5C 26.5,105.167 26.5,108.833 26.5,112.5C 31.5,112.5 36.5,112.5 41.5,112.5C 41.5,114.5 41.5,116.5 41.5,118.5C 34.1667,119.833 26.8333,119.833 19.5,118.5C 19.5,89.1667 19.5,59.8333 19.5,30.5C 54.1667,30.5 88.8333,30.5 123.5,30.5 Z"/></g>
<g><path style="opacity:1" fill="#3d65bc" d="M 55.5,41.5 C 56.069,45.3293 55.4023,48.6627 53.5,51.5C 52.8333,50.8333 52.1667,50.1667 51.5,49.5C 51.67,48.1779 51.3366,47.0113 50.5,46C 45.2551,42.3679 40.4218,42.8679 36,47.5C 33.7902,53.647 34.1235,59.647 37,65.5C 37.6708,66.2524 38.5041,66.5858 39.5,66.5C 42.0613,67.7671 44.728,67.7671 47.5,66.5C 47.4701,67.4972 47.9701,68.1639 49,68.5C 50.5589,67.9706 52.0589,67.304 53.5,66.5C 53.9385,63.7051 54.9385,61.3717 56.5,59.5C 55.5863,62.728 55.2529,66.0613 55.5,69.5C 48.8359,70.1216 42.1692,70.2882 35.5,70C 33.6769,69.0027 32.0103,67.8361 30.5,66.5C 29.0582,65.1805 28.3915,63.5138 28.5,61.5C 29.4674,62.8062 30.8007,63.4729 32.5,63.5C 31.9458,57.6049 32.6124,51.9383 34.5,46.5C 33.675,45.6143 32.675,45.281 31.5,45.5C 32.343,43.8267 33.6763,42.66 35.5,42C 42.2282,41.8699 48.8948,41.7032 55.5,41.5 Z"/></g>
<g><path style="opacity:1" fill="#c6c9d1" d="M 51.5,49.5 C 50.8485,48.9094 50.1818,48.2427 49.5,47.5C 46.9466,47.9452 44.28,47.9452 41.5,47.5C 39.6889,53.6043 39.0222,59.9376 39.5,66.5C 38.5041,66.5858 37.6708,66.2524 37,65.5C 34.1235,59.647 33.7902,53.647 36,47.5C 40.4218,42.8679 45.2551,42.3679 50.5,46C 51.3366,47.0113 51.67,48.1779 51.5,49.5 Z"/></g>
<g><path style="opacity:1" fill="#f3f5f7" d="M 51.5,49.5 C 52.1667,50.1667 52.8333,50.8333 53.5,51.5C 53.9175,52.2216 54.5842,52.7216 55.5,53C 55.0426,53.414 54.7093,53.914 54.5,54.5C 56.396,55.4656 58.396,55.7989 60.5,55.5C 60.8545,57.7674 60.5211,59.1007 59.5,59.5C 59.5,58.5 59.5,57.5 59.5,56.5C 54.1667,56.5 48.8333,56.5 43.5,56.5C 43.5,57.8333 43.5,59.1667 43.5,60.5C 44.8333,60.5 46.1667,60.5 47.5,60.5C 47.5,62.5 47.5,64.5 47.5,66.5C 44.728,67.7671 42.0613,67.7671 39.5,66.5C 39.0222,59.9376 39.6889,53.6043 41.5,47.5C 44.28,47.9452 46.9466,47.9452 49.5,47.5C 50.1818,48.2427 50.8485,48.9094 51.5,49.5 Z"/></g>
<g><path style="opacity:1" fill="#e9da2b" d="M 108.5,54.5 C 108.737,68.882 102.404,72.882 89.5,66.5C 87.8819,63.8291 87.2153,60.8291 87.5,57.5C 88.7869,53.7194 91.4536,51.5528 95.5,51C 100.585,49.6681 104.919,50.8347 108.5,54.5 Z"/></g>
<g><path style="opacity:1" fill="#aca225" d="M 100.5,53.5 C 98.6203,53.2291 97.287,53.8958 96.5,55.5C 95.5184,58.9619 95.185,62.6286 95.5,66.5C 92.6392,61.8548 92.9726,57.3548 96.5,53C 98.0657,52.235 99.3991,52.4017 100.5,53.5 Z"/></g>
<g><path style="opacity:1" fill="#83a1d8" d="M 59.5,59.5 C 58.5,59.5 57.5,59.5 56.5,59.5C 56.6107,58.8826 56.944,58.3826 57.5,58C 53.1287,57.1725 48.7953,57.3391 44.5,58.5C 45.6016,59.1757 46.6016,59.8423 47.5,60.5C 46.1667,60.5 44.8333,60.5 43.5,60.5C 43.5,59.1667 43.5,57.8333 43.5,56.5C 48.8333,56.5 54.1667,56.5 59.5,56.5C 59.5,57.5 59.5,58.5 59.5,59.5 Z"/></g>
<g><path style="opacity:1" fill="#e63015" d="M 75.5,51.5 C 78.6145,51.5548 80.9478,52.8881 82.5,55.5C 83.587,61.1254 81.9203,65.6254 77.5,69C 75.0524,69.8531 74.3857,69.3531 75.5,67.5C 76.6018,63.2529 76.7684,58.9196 76,54.5C 75.6174,53.944 75.1174,53.6107 74.5,53.5C 72.9689,52.0755 73.3023,51.4088 75.5,51.5 Z"/></g>
<g><path style="opacity:1" fill="#3f70dd" d="M 115.5,60.5 C 114.167,58.5 114.167,56.5 115.5,54.5C 117.044,54.2969 118.378,53.6302 119.5,52.5C 120.206,54.7657 120.039,57.0991 119,59.5C 118.667,59.1667 118.333,58.8333 118,58.5C 117.583,59.756 116.75,60.4226 115.5,60.5 Z"/></g>
<g><path style="opacity:1" fill="#b5bece" d="M 123.5,53.5 C 123.5,56.1667 123.5,58.8333 123.5,61.5C 121.974,60.5081 121.307,59.0081 121.5,57C 121.608,55.3189 122.275,54.1522 123.5,53.5 Z"/></g>
<g><path style="opacity:1" fill="#d7c8c3" d="M 74.5,53.5 C 75.1174,53.6107 75.6174,53.944 76,54.5C 76.7684,58.9196 76.6018,63.2529 75.5,67.5C 70.2555,68.4206 68.2555,66.2539 69.5,61C 68.4223,56.4651 70.0889,53.9651 74.5,53.5 Z"/></g>
<g><path style="opacity:1" fill="#c1ba91" d="M 96.5,55.5 C 96.1906,59.7047 96.8572,63.7047 98.5,67.5C 97.391,67.4431 96.391,67.1098 95.5,66.5C 95.185,62.6286 95.5184,58.9619 96.5,55.5 Z"/></g>
<g><path style="opacity:1" fill="#396bdc" d="M 31.5,45.5 C 32.675,45.281 33.675,45.6143 34.5,46.5C 32.6124,51.9383 31.9458,57.6049 32.5,63.5C 30.8007,63.4729 29.4674,62.8062 28.5,61.5C 27.8826,61.3893 27.3826,61.056 27,60.5C 26.3333,57.5 26.3333,54.5 27,51.5C 27.5661,48.7713 29.0661,46.7713 31.5,45.5 Z"/></g>
<g><path style="opacity:1" fill="#366dde" d="M 56.5,59.5 C 54.9385,61.3717 53.9385,63.7051 53.5,66.5C 52.0589,67.304 50.5589,67.9706 49,68.5C 47.9701,68.1639 47.4701,67.4972 47.5,66.5C 47.5,64.5 47.5,62.5 47.5,60.5C 46.6016,59.8423 45.6016,59.1757 44.5,58.5C 48.7953,57.3391 53.1287,57.1725 57.5,58C 56.944,58.3826 56.6107,58.8826 56.5,59.5 Z"/></g>
<g><path style="opacity:1" fill="#5073c4" d="M 123.5,50.5 C 123.5,51.5 123.5,52.5 123.5,53.5C 122.275,54.1522 121.608,55.3189 121.5,57C 121.307,59.0081 121.974,60.5081 123.5,61.5C 123.5,63.1667 123.5,64.8333 123.5,66.5C 120.683,66.1995 120.016,64.8661 121.5,62.5C 120.675,61.6143 119.675,61.281 118.5,61.5C 118.737,62.791 118.404,63.791 117.5,64.5C 117.267,62.9382 116.6,61.6049 115.5,60.5C 116.75,60.4226 117.583,59.756 118,58.5C 118.333,58.8333 118.667,59.1667 119,59.5C 120.039,57.0991 120.206,54.7657 119.5,52.5C 118.378,53.6302 117.044,54.2969 115.5,54.5C 117.315,51.5926 119.981,50.2593 123.5,50.5 Z"/></g>
<g><path style="opacity:1" fill="#e2ded0" d="M 100.5,53.5 C 101.117,53.6107 101.617,53.944 102,54.5C 102.827,58.5411 102.66,62.5411 101.5,66.5C 100.583,67.1272 99.5832,67.4606 98.5,67.5C 96.8572,63.7047 96.1906,59.7047 96.5,55.5C 97.287,53.8958 98.6203,53.2291 100.5,53.5 Z"/></g>
<g><path style="opacity:1" fill="#3769d5" d="M 123.5,66.5 C 123.5,68.1667 123.5,69.8333 123.5,71.5C 120.763,71.5987 118.096,71.2653 115.5,70.5C 115.025,67.9179 115.692,65.9179 117.5,64.5C 118.404,63.791 118.737,62.791 118.5,61.5C 119.675,61.281 120.675,61.6143 121.5,62.5C 120.016,64.8661 120.683,66.1995 123.5,66.5 Z"/></g>
<g><path style="opacity:1" fill="#a39a26" d="M 108.5,54.5 C 109.401,55.2905 110.068,56.2905 110.5,57.5C 110.392,68.6958 104.726,73.0292 93.5,70.5C 92.5,69.8333 91.5,69.1667 90.5,68.5C 90.1667,67.8333 89.8333,67.1667 89.5,66.5C 102.404,72.882 108.737,68.882 108.5,54.5 Z"/></g>
<g><path style="opacity:1" fill="#bf3722" d="M 75.5,51.5 C 73.3023,51.4088 72.9689,52.0755 74.5,53.5C 70.0889,53.9651 68.4223,56.4651 69.5,61C 68.2555,66.2539 70.2555,68.4206 75.5,67.5C 74.3857,69.3531 75.0524,69.8531 77.5,69C 81.9203,65.6254 83.587,61.1254 82.5,55.5C 83.1667,55.8333 83.8333,56.1667 84.5,56.5C 85.1501,67.8446 79.8167,72.5113 68.5,70.5C 68.1667,70.5 67.8333,70.5 67.5,70.5C 61.8827,66.81 60.3827,61.81 63,55.5C 63.7083,54.6195 64.5416,53.9528 65.5,53.5C 65.8333,52.8333 66.1667,52.1667 66.5,51.5C 69.6727,50.6317 72.6727,50.6317 75.5,51.5 Z"/></g>
<g><path style="opacity:1" fill="#e92105" d="M 65.5,53.5 C 67.1368,52.7822 68.8034,52.6155 70.5,53C 70,53.5 69.5,54 69,54.5C 68.8275,58.8711 68.3275,63.2044 67.5,67.5C 64.7389,66.5008 63.4056,64.5008 63.5,61.5C 63.5905,58.664 64.2571,55.9973 65.5,53.5 Z"/></g>
<g><path style="opacity:1" fill="#cbc2bd" d="M 84.5,56.5 C 85.391,57.1098 86.391,57.4431 87.5,57.5C 87.2153,60.8291 87.8819,63.8291 89.5,66.5C 89.8333,67.1667 90.1667,67.8333 90.5,68.5C 89.5041,68.5858 88.6708,68.2524 88,67.5C 82.5197,75.6396 76.0197,76.6396 68.5,70.5C 79.8167,72.5113 85.1501,67.8446 84.5,56.5 Z"/></g>
<g><path style="opacity:1" fill="#cfcec7" d="M 110.5,57.5 C 116.665,67.3485 113.832,73.0152 102,74.5C 98.2733,74.8851 95.4399,73.5518 93.5,70.5C 104.726,73.0292 110.392,68.6958 110.5,57.5 Z"/></g>
<g><path style="opacity:1" fill="#deddde" d="M 55.5,41.5 C 57.1703,41.7512 58.6703,42.4178 60,43.5C 60.3333,43.1667 60.6667,42.8333 61,42.5C 62.1268,45.3771 62.7935,48.3771 63,51.5C 64.1455,50.3157 65.3121,50.3157 66.5,51.5C 66.1667,52.1667 65.8333,52.8333 65.5,53.5C 64.5416,53.9528 63.7083,54.6195 63,55.5C 60.3827,61.81 61.8827,66.81 67.5,70.5C 65.3393,70.1742 63.5059,69.1742 62,67.5C 61.205,69.9012 60.0383,72.0679 58.5,74C 51.8743,75.3047 45.2076,75.6381 38.5,75C 37.1916,74.1762 35.6916,73.6762 34,73.5C 32.0743,71.531 30.9076,69.1976 30.5,66.5C 32.0103,67.8361 33.6769,69.0027 35.5,70C 42.1692,70.2882 48.8359,70.1216 55.5,69.5C 55.2529,66.0613 55.5863,62.728 56.5,59.5C 57.5,59.5 58.5,59.5 59.5,59.5C 60.5211,59.1007 60.8545,57.7674 60.5,55.5C 58.396,55.7989 56.396,55.4656 54.5,54.5C 54.7093,53.914 55.0426,53.414 55.5,53C 54.5842,52.7216 53.9175,52.2216 53.5,51.5C 55.4023,48.6627 56.069,45.3293 55.5,41.5 Z"/></g>
<g><path style="opacity:1" fill="#afb8cd" d="M 115.5,70.5 C 118.096,71.2653 120.763,71.5987 123.5,71.5C 123.5,73.8333 123.5,76.1667 123.5,78.5C 119.686,78.3491 118.019,76.3491 118.5,72.5C 117.5,72.5 116.5,72.5 115.5,72.5C 115.5,71.8333 115.5,71.1667 115.5,70.5 Z"/></g>
<g><path style="opacity:1" fill="#3a65be" d="M 115.5,72.5 C 116.5,72.5 117.5,72.5 118.5,72.5C 118.019,76.3491 119.686,78.3491 123.5,78.5C 123.5,79.1667 123.5,79.8333 123.5,80.5C 121.473,80.6621 119.473,80.4955 117.5,80C 113.258,78.1997 112.591,75.6997 115.5,72.5 Z"/></g>
<g><path style="opacity:1" fill="#a7a7a7" d="M -0.5,78.5 C 5.59821,77.8833 11.2649,78.55 16.5,80.5C 10.8333,80.5 5.16667,80.5 -0.5,80.5C -0.5,79.8333 -0.5,79.1667 -0.5,78.5 Z"/></g>
<g><path style="opacity:1" fill="#087c7c" d="M -0.5,80.5 C 5.16667,80.5 10.8333,80.5 16.5,80.5C 16.171,94.3435 16.5043,108.01 17.5,121.5C 48.6622,122.498 79.9956,122.832 111.5,122.5C 111.5,122.833 111.5,123.167 111.5,123.5C 78.1667,123.5 44.8333,123.5 11.5,123.5C 5.83333,121.167 1.83333,117.167 -0.5,111.5C -0.5,101.167 -0.5,90.8333 -0.5,80.5 Z"/></g>
<g><path style="opacity:1" fill="#a8a8a8" d="M 60.5,96.5 C 58.6366,98.4123 56.6366,99.079 54.5,98.5C 53.2618,99.4124 51.9285,99.5791 50.5,99C 52.9011,98.195 52.7344,97.3617 50,96.5C 49.8171,93.7177 50.9837,93.0511 53.5,94.5C 52.4937,95.3957 52.4937,96.0623 53.5,96.5C 55.9724,95.2335 58.3057,95.2335 60.5,96.5 Z"/></g>
<g><path style="opacity:1" fill="#7f7f7f" d="M 54.5,98.5 C 56.6366,99.079 58.6366,98.4123 60.5,96.5C 61.1103,98.8503 61.4437,98.517 61.5,95.5C 63.7925,95.7564 65.9592,95.4231 68,94.5C 70.0652,95.6278 70.7319,97.2945 70,99.5C 69.3333,95.5 68.6667,95.5 68,99.5C 67.6924,98.6919 67.1924,98.0253 66.5,97.5C 65.8031,100.344 64.6364,100.011 63,96.5C 62.5172,97.448 62.3505,98.448 62.5,99.5C 59.6146,99.8064 56.9479,99.4731 54.5,98.5 Z"/></g>
<g><path style="opacity:1" fill="#919191" d="M 75.5,94.5 C 77.0443,94.7031 78.3777,95.3698 79.5,96.5C 80.6086,95.4104 81.6086,95.4104 82.5,96.5C 80.0087,97.5407 80.0087,98.3741 82.5,99C 79.5184,99.498 76.5184,99.6646 73.5,99.5C 73.3653,97.4458 74.032,95.7791 75.5,94.5 Z"/></g>
<g><path style="opacity:1" fill="#959595" d="M 94.5,94.5 C 96.1998,95.016 97.5331,96.016 98.5,97.5C 96.9161,100.127 95.2495,100.127 93.5,97.5C 93.3233,100.078 92.1567,100.078 90,97.5C 89.6667,98.1667 89.3333,98.8333 89,99.5C 88.3333,98.1667 87.6667,98.1667 87,99.5C 86.5,98.5 86,97.5 85.5,96.5C 88.4837,96.3673 91.4837,95.7007 94.5,94.5 Z"/></g>
<g><path style="opacity:1" fill="#9e9e9e" d="M 117.5,100.5 C 116.292,101.234 114.959,101.567 113.5,101.5C 109.627,99.5698 105.294,98.9031 100.5,99.5C 100.343,98.1266 100.51,96.7932 101,95.5C 101.807,99.449 102.307,99.449 102.5,95.5C 104.821,95.7711 106.821,95.1045 108.5,93.5C 111.091,96.3101 114.091,96.9768 117.5,95.5C 117.5,97.1667 117.5,98.8333 117.5,100.5 Z"/></g>
<g><path style="opacity:1" fill="#757475" d="M 120.5,94.5 C 121.613,95.9464 121.78,97.6131 121,99.5C 119.212,97.9769 119.045,96.3102 120.5,94.5 Z"/></g>
<g><path style="opacity:0.998" fill="#fefefe" d="M 123.5,102.5 C 123.5,105.5 123.5,108.5 123.5,111.5C 123.167,111.5 122.833,111.5 122.5,111.5C 90.8333,111.5 59.1667,111.5 27.5,111.5C 27.5,108.5 27.5,105.5 27.5,102.5C 59.5,102.5 91.5,102.5 123.5,102.5 Z"/></g>
<g><path style="opacity:1" fill="#cdcdcd" d="M 117.5,100.5 C 119.265,101.461 121.265,101.795 123.5,101.5C 123.5,101.833 123.5,102.167 123.5,102.5C 91.5,102.5 59.5,102.5 27.5,102.5C 27.5,105.5 27.5,108.5 27.5,111.5C 59.1667,111.5 90.8333,111.5 122.5,111.5C 122.008,113.819 121.008,115.819 119.5,117.5C 117.425,116.993 115.091,115.993 112.5,114.5C 111.065,115.824 110.065,117.49 109.5,119.5C 108.571,118.311 108.238,116.978 108.5,115.5C 105.794,115.425 103.127,115.092 100.5,114.5C 100.5,116.167 100.5,117.833 100.5,119.5C 96.8083,119.307 93.4749,118.974 90.5,118.5C 92.256,117.448 92.9227,115.781 92.5,113.5C 76.1667,113.5 59.8333,113.5 43.5,113.5C 43.0773,115.781 43.744,117.448 45.5,118.5C 44.2946,119.686 42.9613,119.686 41.5,118.5C 41.5,116.5 41.5,114.5 41.5,112.5C 36.5,112.5 31.5,112.5 26.5,112.5C 26.5,108.833 26.5,105.167 26.5,101.5C 55.5,101.5 84.5,101.5 113.5,101.5C 114.959,101.567 116.292,101.234 117.5,100.5 Z"/></g>
<g><path style="opacity:1" fill="#e7e7e7" d="M 90.5,118.5 C 90.2381,116.436 89.0714,115.103 87,114.5C 84.6137,116.091 81.947,117.091 79,117.5C 76.7646,116.761 74.7646,116.761 73,117.5C 72.5172,116.552 72.3505,115.552 72.5,114.5C 71.5,114.5 70.5,114.5 69.5,114.5C 69.3601,116.124 70.0267,117.29 71.5,118C 70.2341,118.309 69.0674,118.809 68,119.5C 67.8905,116.354 66.5572,115.354 64,116.5C 62.3158,114.541 60.3158,114.541 58,116.5C 55.6667,116.5 53.3333,116.5 51,116.5C 47.7925,113.513 45.9592,114.18 45.5,118.5C 43.744,117.448 43.0773,115.781 43.5,113.5C 59.8333,113.5 76.1667,113.5 92.5,113.5C 92.9227,115.781 92.256,117.448 90.5,118.5 Z"/></g>
<g><path style="opacity:1" fill="#979797" d="M 90.5,118.5 C 93.4749,118.974 96.8083,119.307 100.5,119.5C 100.5,117.833 100.5,116.167 100.5,114.5C 103.127,115.092 105.794,115.425 108.5,115.5C 108.238,116.978 108.571,118.311 109.5,119.5C 110.065,117.49 111.065,115.824 112.5,114.5C 115.091,115.993 117.425,116.993 119.5,117.5C 118.421,119.543 116.754,120.876 114.5,121.5C 82.671,120.502 50.671,120.168 18.5,120.5C 18.3284,119.508 18.6618,118.842 19.5,118.5C 26.8333,119.833 34.1667,119.833 41.5,118.5C 42.9613,119.686 44.2946,119.686 45.5,118.5C 45.9592,114.18 47.7925,113.513 51,116.5C 53.3333,116.5 55.6667,116.5 58,116.5C 60.3158,114.541 62.3158,114.541 64,116.5C 66.5572,115.354 67.8905,116.354 68,119.5C 69.0674,118.809 70.2341,118.309 71.5,118C 70.0267,117.29 69.3601,116.124 69.5,114.5C 70.5,114.5 71.5,114.5 72.5,114.5C 72.3505,115.552 72.5172,116.552 73,117.5C 74.7646,116.761 76.7646,116.761 79,117.5C 81.947,117.091 84.6137,116.091 87,114.5C 89.0714,115.103 90.2381,116.436 90.5,118.5 Z"/></g>
<g><path style="opacity:1" fill="#284848" d="M 17.5,120.5 C 17.8333,120.5 18.1667,120.5 18.5,120.5C 50.671,120.168 82.671,120.502 114.5,121.5C 113.609,122.11 112.609,122.443 111.5,122.5C 79.9956,122.832 48.6622,122.498 17.5,121.5C 17.5,121.167 17.5,120.833 17.5,120.5 Z"/></g>
</svg>
