<?xml version="1.0" encoding="UTF-8"?>
<!DOCTYPE svg PUBLIC "-//W3C//DTD SVG 1.1//EN" "http://www.w3.org/Graphics/SVG/1.1/DTD/svg11.dtd">
<svg xmlns="http://www.w3.org/2000/svg" version="1.1" width="124px" height="124px" style="shape-rendering:geometricPrecision; text-rendering:geometricPrecision; image-rendering:optimizeQuality; fill-rule:evenodd; clip-rule:evenodd" xmlns:xlink="http://www.w3.org/1999/xlink">
<g><path style="opacity:1" fill="#2d3030" d="M -0.5,-0.5 C 40.8333,-0.5 82.1667,-0.5 123.5,-0.5C 123.5,40.8333 123.5,82.1667 123.5,123.5C 82.1667,123.5 40.8333,123.5 -0.5,123.5C -0.5,96.8333 -0.5,70.1667 -0.5,43.5C 0.166667,43.5 0.833333,43.5 1.5,43.5C 1.5,69.5 1.5,95.5 1.5,121.5C 41.5,121.5 81.5,121.5 121.5,121.5C 121.5,81.5 121.5,41.5 121.5,1.5C 81.5,1.5 41.5,1.5 1.5,1.5C 1.5,6.16667 1.5,10.8333 1.5,15.5C 0.833333,15.5 0.166667,15.5 -0.5,15.5C -0.5,10.1667 -0.5,4.83333 -0.5,-0.5 Z"/></g>
<g><path style="opacity:1" fill="#1e2022" d="M 1.5,43.5 C 30.5019,43.6666 59.5019,43.5 88.5,43C 98.9858,38.8615 101.819,31.6948 97,21.5C 95.0616,18.8941 92.5616,17.0608 89.5,16C 60.1686,15.5 30.8352,15.3334 1.5,15.5C 1.5,10.8333 1.5,6.16667 1.5,1.5C 41.5,1.5 81.5,1.5 121.5,1.5C 121.5,41.5 121.5,81.5 121.5,121.5C 81.5,121.5 41.5,121.5 1.5,121.5C 1.5,95.5 1.5,69.5 1.5,43.5 Z"/></g>
<g><path style="opacity:1" fill="#a4b2f5" d="M -0.5,15.5 C 0.166667,15.5 0.833333,15.5 1.5,15.5C 30.8352,15.3334 60.1686,15.5 89.5,16C 92.5616,17.0608 95.0616,18.8941 97,21.5C 101.819,31.6948 98.9858,38.8615 88.5,43C 59.5019,43.5 30.5019,43.6666 1.5,43.5C 0.833333,43.5 0.166667,43.5 -0.5,43.5C -0.5,34.1667 -0.5,24.8333 -0.5,15.5 Z"/></g>
<g><path style="opacity:1" fill="#3b4058" d="M 26.5,25.5 C 28.1765,26.1834 28.8432,27.5168 28.5,29.5C 29.8333,29.5 31.1667,29.5 32.5,29.5C 32.238,28.0222 32.5713,26.6888 33.5,25.5C 34.8333,28.8333 34.8333,32.1667 33.5,35.5C 32.5713,34.3112 32.238,32.9778 32.5,31.5C 31.1667,31.5 29.8333,31.5 28.5,31.5C 28.762,32.9778 28.4287,34.3112 27.5,35.5C 26.513,32.2317 26.1796,28.8984 26.5,25.5 Z"/></g>
<g><path style="opacity:1" fill="#505677" d="M 58.5,25.5 C 59.7251,26.1522 60.3917,27.3189 60.5,29C 60.1667,30.1667 59.8333,31.3333 59.5,32.5C 58.5258,30.2573 58.1924,27.924 58.5,25.5 Z"/></g>
<g><path style="opacity:1" fill="#2c3040" d="M 42.5,31.5 C 41.2209,30.032 39.5542,29.3653 37.5,29.5C 37.5,30.5 37.5,31.5 37.5,32.5C 37.811,33.4778 38.4777,34.1445 39.5,34.5C 43.445,33.5728 43.445,33.9061 39.5,35.5C 34.289,33.054 34.289,30.3873 39.5,27.5C 41.5499,28.0766 42.5499,29.4099 42.5,31.5 Z"/></g>
<g><path style="opacity:1" fill="#353a4e" d="M 52.5,27.5 C 56.6623,28.1538 57.9956,30.4872 56.5,34.5C 54.9255,35.6309 53.2588,35.7975 51.5,35C 50.0825,32.2565 50.4159,29.7565 52.5,27.5 Z"/></g>
<g><path style="opacity:1" fill="#a3b0f3" d="M 52.5,29.5 C 53.5,29.5 54.5,29.5 55.5,29.5C 55.5,31.1667 55.5,32.8333 55.5,34.5C 51.7162,34.4747 50.7162,32.8081 52.5,29.5 Z"/></g>
<g><path style="opacity:1" fill="#626b93" d="M 42.5,31.5 C 41.0813,32.4511 39.4147,32.7845 37.5,32.5C 37.5,31.5 37.5,30.5 37.5,29.5C 39.5542,29.3653 41.2209,30.032 42.5,31.5 Z"/></g>
<g><path style="opacity:1" fill="#33374c" d="M 58.5,33.5 C 60.337,33.6395 60.6704,34.3061 59.5,35.5C 58.7025,35.0431 58.3691,34.3764 58.5,33.5 Z"/></g>
<g><path style="opacity:1" fill="#86a7fd" d="M 41.5,63.5 C 42.4959,63.4142 43.3292,63.7476 44,64.5C 44.6667,71.8333 44.6667,79.1667 44,86.5C 43,87.8333 42,87.8333 41,86.5C 40.2019,78.754 40.3686,71.0873 41.5,63.5 Z"/></g>
<g><path style="opacity:1" fill="#86a7fd" d="M 65.5,63.5 C 66.4959,63.4142 67.3292,63.7476 68,64.5C 68.6667,71.8333 68.6667,79.1667 68,86.5C 67,87.8333 66,87.8333 65,86.5C 64.2019,78.754 64.3686,71.0873 65.5,63.5 Z"/></g>
<g><path style="opacity:1" fill="#85a7fc" d="M 57.5,67.5 C 58.4959,67.4142 59.3292,67.7476 60,68.5C 60.6667,73.1667 60.6667,77.8333 60,82.5C 59,83.8333 58,83.8333 57,82.5C 56.2223,77.4158 56.3889,72.4158 57.5,67.5 Z"/></g>
<g><path style="opacity:1" fill="#85a7fc" d="M 73.5,67.5 C 74.4959,67.4142 75.3292,67.7476 76,68.5C 76.6667,73.1667 76.6667,77.8333 76,82.5C 75,83.8333 74,83.8333 73,82.5C 72.2223,77.4158 72.3889,72.4158 73.5,67.5 Z"/></g>
<g><path style="opacity:1" fill="#85a6fb" d="M 33.5,69.5 C 34.4959,69.4142 35.3292,69.7476 36,70.5C 36.6667,73.8333 36.6667,77.1667 36,80.5C 35,81.8333 34,81.8333 33,80.5C 32.2446,76.7446 32.4113,73.0779 33.5,69.5 Z"/></g>
<g><path style="opacity:1" fill="#85a6fb" d="M 49.5,69.5 C 50.4959,69.4142 51.3292,69.7476 52,70.5C 52.6667,73.8333 52.6667,77.1667 52,80.5C 51,81.8333 50,81.8333 49,80.5C 48.2446,76.7446 48.4113,73.0779 49.5,69.5 Z"/></g>
<g><path style="opacity:1" fill="#85a6fb" d="M 81.5,69.5 C 82.4959,69.4142 83.3292,69.7476 84,70.5C 84.6667,73.8333 84.6667,77.1667 84,80.5C 83,81.8333 82,81.8333 81,80.5C 80.2446,76.7446 80.4113,73.0779 81.5,69.5 Z"/></g>
<g><path style="opacity:1" fill="#85a6fb" d="M 89.5,69.5 C 90.4959,69.4142 91.3292,69.7476 92,70.5C 92.6667,73.8333 92.6667,77.1667 92,80.5C 91,81.8333 90,81.8333 89,80.5C 88.2446,76.7446 88.4113,73.0779 89.5,69.5 Z"/></g>
<g><path style="opacity:1" fill="#84a5f9" d="M 25.5,71.5 C 27.8896,71.6848 28.8896,73.0182 28.5,75.5C 27.1667,80.8333 25.8333,80.8333 24.5,75.5C 24.6233,74.0755 24.9566,72.7421 25.5,71.5 Z"/></g>
<g><path style="opacity:1" fill="#84a5f9" d="M 97.5,71.5 C 99.8896,71.6848 100.89,73.0182 100.5,75.5C 99.1667,80.8333 97.8333,80.8333 96.5,75.5C 96.6233,74.0755 96.9566,72.7421 97.5,71.5 Z"/></g>
<g><path style="opacity:1" fill="#81a1f2" d="M 17.5,73.5 C 20.8606,74.2032 21.1939,75.5365 18.5,77.5C 16.3576,76.5629 16.0243,75.2296 17.5,73.5 Z"/></g>
<g><path style="opacity:1" fill="#81a1f2" d="M 105.5,73.5 C 108.861,74.2032 109.194,75.5365 106.5,77.5C 104.358,76.5629 104.024,75.2296 105.5,73.5 Z"/></g>
</svg>
